<?xml version="1.0" encoding="UTF-8"?>
<svg id="Layer_2" data-name="Layer 2" xmlns="http://www.w3.org/2000/svg" viewBox="0 0 878.46 878.46">
  <defs>
    <style>
      .cls-1 {
        fill: #fff;
      }
    </style>
  </defs>
  <g id="Inspiration">
    <g>
      <circle cx="439.23" cy="439.23" r="439.23"/>
      <g>
        <polygon class="cls-1" points="443.93 440.51 463.93 405.87 463.93 775.34 443.93 740.7 443.93 440.51"/>
        <polygon class="cls-1" points="433.93 501.06 413.93 466.42 413.93 835.89 433.93 801.25 433.93 501.06"/>
        <polygon class="cls-1" points="223.1 175.89 223.1 135.89 407.84 455.87 373.2 435.87 223.1 175.89"/>
        <polygon class="cls-1" points="433.93 441.06 433.93 481.06 249.19 161.09 283.84 181.09 433.93 441.06"/>
        <polygon class="cls-1" points="658.67 168.57 658.67 128.57 473.93 448.55 508.57 428.55 658.67 168.57"/>
        <polygon class="cls-1" points="473.93 388.55 473.93 428.55 658.67 108.57 624.03 128.57 473.93 388.55"/>
      </g>
    </g>
  </g>
</svg>
