<?xml version="1.0" encoding="UTF-8"?><svg id="b" xmlns="http://www.w3.org/2000/svg" viewBox="0 0 573.6 250"><defs><style>.e{fill:#fff;}.f{fill:#ff000f;}</style></defs><g id="c"><g id="d"><rect class="f" width="573.6" height="250"/><path class="e" d="M309.33,220.32h11.55c34.66-1.73,58.93-28.89,58.93-61.24,0-10.98-2.31-21.95-7.51-30.62h-62.97v91.86Z"/><rect class="e" x="245.78" y="127.89" width="57.77" height="92.44"/><path class="e" d="M368.84,122.11c-5.78-8.09-13.87-14.44-22.53-19.06,10.4-7.51,17.33-19.64,17.33-32.93,0-22.53-17.91-40.44-40.44-40.44h-13.87v92.44h59.51Z"/><rect class="e" x="245.78" y="29.68" width="57.77" height="92.44"/><path class="e" d="M465.31,220.32h11.55c34.66-1.73,58.93-28.89,58.93-61.24,0-10.98-2.31-21.95-7.51-30.62h-62.97v91.86Z"/><rect class="e" x="401.77" y="127.89" width="57.77" height="92.44"/><path class="e" d="M524.82,122.11c-5.78-8.09-13.87-14.44-22.53-19.06,10.4-7.51,17.33-19.64,17.33-32.93,0-22.53-17.91-40.44-40.44-40.44h-13.87v92.44h59.51Z"/><rect class="e" x="401.77" y="29.68" width="57.77" height="92.44"/><polygon class="e" points="70.73 127.89 37.8 220.32 85.75 220.32 99.62 179.88 130.24 179.88 130.24 127.89 70.73 127.89"/><polygon class="e" points="130.24 29.68 105.39 29.68 72.46 122.11 130.24 122.11 130.24 29.68"/><polygon class="e" points="136.01 179.88 166.63 179.88 180.5 220.32 228.45 220.32 195.52 127.89 136.01 127.89 136.01 179.88"/><polygon class="e" points="193.79 122.11 160.86 29.68 136.01 29.68 136.01 122.11 193.79 122.11"/></g></g></svg>