<?xml version="1.0" encoding="UTF-8"?><svg id="b" xmlns="http://www.w3.org/2000/svg" viewBox="0 0 373.08 250"><defs><style>.e{fill:#fff;}.f{stroke-width:14.56px;}.f,.g,.h{fill:none;stroke:#fff;}.g{stroke-width:11.38px;}.i{fill:#00979c;}.h{stroke-width:26.85px;}</style></defs><g id="c"><g id="d"><rect class="i" width="373.08" height="250"/><path class="h" d="M100.74,24.65c-43.28-3.45-79.65,47.79-61.9,87.38,17.29,42.96,82.38,54.61,113.32,20.21,29.99-29.4,41.55-74.64,78.28-97.85,37.32-25.49,97.39-1.42,104.68,43.87,7.1,43.37-39.64,85.56-81.92,72.82-31.27-7.05-53.7-33.77-66.45-61.9-15.7-26.85-36.23-55.52-68.27-62.81-5.69-1.29-11.56-1.8-17.39-1.79l-.36.06Z"/><path class="g" d="M75.25,86.09h54.61"/><path class="f" d="M242.73,86.09h45.51M265.03,63.33v45.51"/><path class="e" d="M59.78,231.72l-2.91-10.47h-18.48l-3,10.47h-9.88l15.66-52.79h13.93l15.66,52.79h-10.97ZM47.76,188.49l-6.96,24.62h13.84l-6.87-24.62ZM103.47,231.72s-5.32-12.56-8.33-18.66c-1.74-2.62-5.19-3.65-8.19-3.23-.27,7.15-.22,21.89-.22,21.89h-9.97v-52.79s15.02-.44,22.48.55c15.79,1.78,16.84,24.76.97,27.17,2.98,1.18,4.78,3.94,6.05,6.74l7.96,16.48c.56,1.13.55,2-1.06,1.99l-9.7-.13ZM101,194.36c-.05-8.15-8.19-7.24-14.25-7.28v14.93c7.15.24,14.11-.49,14.25-7.65ZM158.99,218.07c-4.82,11.15-15.38,13.74-25.4,13.56h-12.24v-52.79l18.61.09c23.03.75,23.85,25.58,18.98,39.32l.05-.18ZM146.25,190.17c-4.64-3.99-9.74-3.17-14.93-3.17v36.27c4.55,0,9.51.36,13.38-2.46,8.24-5.19,7.19-24.85,1.52-30.63h.02ZM206.78,212.15c.99,26.67-37.09,26.58-38.23,5.78-.7-6.37-.12-12.74-.31-19.11v-20.12h9.97l.18,37.77c1.17,10.42,15.02,9.51,17.11,3.73,2.12-4.6,1.14-9.78,1.36-14.7v-26.81h9.97v33.45h-.05ZM216.34,186.67v-8.15h33.45v8.15h-11.65v36.59h11.65v8.24h-33.45v-8.24h11.65v-36.59h-11.65ZM286.88,231.72l-17.11-38.41v38.41h-9.06v-52.79h12.24l17.02,38.05c.05-2.73.02-38.05.02-38.05h9.06v52.79h-12.17ZM340.13,227.17c-11.06,9.51-30.36,7.42-34.18-11.33-5.23-28.49,10.19-44.87,31.68-35.32,13.2,7.42,12.47,37.96,2.5,46.88v-.23ZM326.79,186.8c-9.42-.25-10.79,9.38-11.15,14.02-.08,8.78-.86,23.39,11.33,22.76,3.78,0,7.05-2.74,8.28-6.24,2.48-5.51,4.35-30.99-8.47-30.54h0Z"/></g></g></svg>