<?xml version="1.0" encoding="UTF-8"?><svg id="b" xmlns="http://www.w3.org/2000/svg" xmlns:xlink="http://www.w3.org/1999/xlink" viewBox="0 0 656.5 250"><defs><style>.l{fill:url(#k);}.m{fill:#fff;}.n{fill:url(#j);}.o{fill:#0089d6;}.p{fill:url(#i);}.q{fill:#0078d4;}</style><linearGradient id="i" x1="-3938.96" y1="203.26" x2="-3975.98" y2="312.64" gradientTransform="translate(6275.22 -268.14) scale(1.56)" gradientUnits="userSpaceOnUse"><stop offset="0" stop-color="#114a8b"/><stop offset="1" stop-color="#0669bc"/></linearGradient><linearGradient id="j" x1="-3927.39" y1="254.24" x2="-3935.96" y2="257.13" gradientTransform="translate(6275.22 -268.14) scale(1.56)" gradientUnits="userSpaceOnUse"><stop offset="0" stop-color="#000" stop-opacity=".3"/><stop offset=".07" stop-color="#000" stop-opacity=".2"/><stop offset=".32" stop-color="#000" stop-opacity=".1"/><stop offset=".62" stop-color="#000" stop-opacity=".05"/><stop offset="1" stop-color="#000" stop-opacity="0"/></linearGradient><linearGradient id="k" x1="-3931.84" y1="199.97" x2="-3891.2" y2="308.25" gradientTransform="translate(6275.22 -268.14) scale(1.56)" gradientUnits="userSpaceOnUse"><stop offset="0" stop-color="#3ccbf4"/><stop offset="1" stop-color="#2892df"/></linearGradient></defs><g id="c"><g id="d"><rect class="m" width="656.5" height="250"/><g id="e"><g id="f"><g id="g"><path id="h" class="o" d="M447.74,177.43c-13.44-.86-21.25-8.51-23.33-22.84-.55-3.81-.55-3.91-.61-28.64l-.05-23.94h11.89l.05,23.16c.04,20.87.07,23.32.27,24.78.81,5.96,2.42,9.96,5.17,12.84,2.2,2.3,4.77,3.65,8.33,4.36,1.68.34,6.46.34,7.99,0,3.61-.79,6.5-2.36,9.05-4.91,2.91-2.91,5.06-7.03,6.1-11.7l.35-1.57.04-23.35.04-23.35h12.14v73.42h-12.02v-5.82c0-3.96-.04-5.81-.14-5.78-.07.02-.38.5-.69,1.05-2.07,3.78-5.52,7.23-9.3,9.31-4.53,2.49-9.08,3.38-15.29,2.98h0ZM584.14,177.37c-4.74-.36-9.74-1.99-13.82-4.51-8.6-5.32-13.7-14.1-15.19-26.17-.52-4.18-.58-9.79-.15-13.34.96-7.93,4.08-15.72,8.52-21.28,1.14-1.43,3.72-4.01,5.14-5.14,3.85-3.07,8.35-5.22,13.13-6.27,2.78-.61,7.69-.9,10.65-.62,7.43.69,14.24,4.19,18.87,9.7,4.7,5.6,7.29,13.41,7.62,23.04.05,1.51.06,4.15.03,5.88l-.07,3.14-26.03.03-26.03.03v1.16c0,3.54.86,7.56,2.35,10.99,1.28,2.95,3.49,6.18,5.29,7.74,3.7,3.2,8.24,5.12,13.2,5.58,1.84.17,6.53,0,8.62-.33,5.98-.92,11.66-3.26,16.26-6.71.54-.4,1.06-.78,1.15-.84.13-.08.17.97.16,5.42v5.53s-1.23.76-1.23.76c-5.19,3.21-11.14,5.27-17.44,6.05-1.88.23-8.78.33-11.03.16h0ZM606.79,130.76c0-5.92-2.5-12.5-6.03-15.89-2.52-2.42-5.57-3.9-9.19-4.46-1.71-.27-5.33-.16-7.13.2-3.82.77-6.98,2.45-9.74,5.17-2.9,2.87-5.07,6.35-6.44,10.31-.49,1.43-1.07,3.77-1.25,5.07l-.09.62h39.86v-1.03ZM253.7,175.52c.03-.09,8.87-23.31,19.64-51.6l19.59-51.44h6.29s6.29,0,6.29,0l.52,1.34c1.6,4.09,39.21,101.75,39.21,101.8,0,.03-3.01.06-6.7.06h-6.7s-5.42-14.44-5.42-14.44l-5.42-14.43h-21.83s-21.83,0-21.83,0l-.19.49c-.1.27-2.42,6.76-5.15,14.43l-4.96,13.94h-6.71c-5.31,0-6.7-.03-6.65-.16h0ZM317.04,135.8s-3.65-9.91-8.11-21.98c-8.34-22.57-8.81-23.93-9.47-27.56-.31-1.7-.47-1.75-.65-.2-.13,1.11-.7,3.59-1.14,4.96-.22.68-3.97,10.99-8.35,22.91-4.37,11.92-7.95,21.72-7.95,21.78s8.02.11,17.83.11,17.83-.02,17.83-.04ZM349.3,173.81v-1.88l21.75-29.9,21.75-29.9-19.69-.07-19.69-.07-.03-5-.03-5h56.96v3.38l-21.75,30.06c-11.96,16.53-21.75,30.09-21.75,30.12s9.67.06,21.49.06h21.49v10.06h-60.49v-1.88ZM508.9,175.6s-.09-16.63-.09-36.84v-36.75h11.89v7.58c0,4.17.05,7.58.11,7.58s.35-.68.64-1.52c1.34-3.82,3.65-7.39,6.64-10.23,2.69-2.56,5.76-4.08,9.39-4.67,1.02-.16,1.88-.2,3.92-.14,2.56.07,3.9.25,5.45.76l.49.16v12.34l-1.4-.7c-2.48-1.24-4.93-1.73-7.87-1.58-1.92.1-3.17.35-4.7.92-3.15,1.18-5.71,3.27-7.49,6.12-2.58,4.12-4.43,9.42-4.97,14.3-.1.87-.16,7.99-.18,22.03l-.03,20.74h-5.86c-3.22,0-5.89-.04-5.94-.09Z"/></g></g><path class="p" d="M100.3,36.31h55.71l-57.83,171.34c-1.22,3.61-4.6,6.04-8.41,6.04h-43.35c-4.9,0-8.87-3.97-8.87-8.87,0-.96.16-1.92.47-2.84L91.88,42.35c1.22-3.61,4.6-6.04,8.42-6.04h0Z"/><path class="q" d="M181.25,151.23h-88.34c-2.26,0-4.09,1.83-4.09,4.08,0,1.14.47,2.22,1.3,3l56.76,52.98c1.65,1.54,3.83,2.4,6.09,2.4h50.02l-21.74-62.46Z"/><path class="n" d="M100.3,36.31c-3.86-.01-7.28,2.48-8.44,6.16l-53.79,159.37c-1.65,4.6.74,9.68,5.35,11.33.97.35,1.99.52,3.01.52h44.47c3.37-.6,6.16-2.97,7.3-6.2l10.73-31.61,38.32,35.74c1.61,1.33,3.62,2.06,5.7,2.08h49.83l-21.86-62.46h-63.71s39-114.92,39-114.92h-55.91Z"/><path class="l" d="M171.45,42.34c-1.22-3.61-4.6-6.03-8.4-6.03h-62.08c3.81,0,7.19,2.43,8.4,6.03l53.88,159.64c1.57,4.64-.93,9.67-5.57,11.24-.91.31-1.87.47-2.84.47h62.09c4.9,0,8.87-3.97,8.87-8.87,0-.96-.16-1.92-.47-2.83l-53.88-159.64Z"/></g></g></g></svg>