<?xml version="1.0" encoding="UTF-8"?><svg id="b" xmlns="http://www.w3.org/2000/svg" viewBox="0 0 255 255"><defs><style>.e{fill:#659ad2;}.f{fill:#fff;}.g{fill:#00599c;}.h{fill:#004482;}</style></defs><g id="c"><g id="d"><polygon class="h" points="255 201.11 255 255 0 255 0 201.11 127.5 127.5 255 201.11"/><polygon class="g" points="255 53.89 255 201.11 127.5 127.5 255 53.89"/><polygon class="e" points="255 0 255 53.89 127.5 127.5 0 201.11 0 0 255 0"/><path class="f" d="M127.5,212.48c-46.86,0-84.98-38.12-84.98-84.98S80.64,42.52,127.5,42.52c30.24,0,58.44,16.27,73.59,42.47l-36.78,21.28c-7.59-13.11-21.69-21.26-36.82-21.26-23.43,0-42.49,19.06-42.49,42.49s19.06,42.49,42.49,42.49c15.12,0,29.23-8.15,36.82-21.26l36.78,21.28c-15.16,26.2-43.36,42.47-73.6,42.47Z"/><polygon class="f" points="212.48 122.78 203.04 122.78 203.04 113.34 193.6 113.34 193.6 122.78 184.16 122.78 184.16 132.22 193.6 132.22 193.6 141.66 203.04 141.66 203.04 132.22 212.48 132.22 212.48 122.78"/><polygon class="f" points="247.89 122.78 238.45 122.78 238.45 113.34 229.01 113.34 229.01 122.78 219.57 122.78 219.57 132.22 229.01 132.22 229.01 141.66 238.45 141.66 238.45 132.22 247.89 132.22 247.89 122.78"/></g></g></svg>