<?xml version="1.0" encoding="UTF-8"?><svg id="b" xmlns="http://www.w3.org/2000/svg" xmlns:xlink="http://www.w3.org/1999/xlink" viewBox="0 0 1479.96 250"><defs><style>.f{fill:#f6821f;}.g{fill:#fbad41;}.h{fill:#fff;}.i{fill:none;}.j{clip-path:url(#e);}</style><clipPath id="e"><rect class="i" x="60.91" y="25.14" width="1358.14" height="199.73"/></clipPath></defs><g id="c"><g id="d"><rect class="h" width="1479.96" height="250"/><g class="j"><path class="g" d="M411.68,111.87c-1.46,0-2.91.05-4.35.1-.23.01-.46.07-.68.16-.78.26-1.37.9-1.57,1.7l-6.19,21.63c-2.67,9.3-1.68,17.89,2.81,24.19,4.11,5.83,10.96,9.25,19.27,9.65l33.59,2.04c1,.05,1.86.53,2.39,1.32.56.86.68,1.93.34,2.89-.55,1.58-1.98,2.69-3.64,2.84l-34.9,2.04c-18.96.88-39.36,16.35-46.52,35.22l-2.52,6.66c-.38.96.1,2.04,1.05,2.42.19.07.39.12.6.13h120.2c1.44,0,2.7-.95,3.09-2.33,2.13-7.67,3.21-15.6,3.2-23.57,0-48.07-38.54-87.03-86.1-87.03"/><path d="M630.26,150.87h19.91v54.92h34.74v17.62h-54.65v-72.54ZM705.49,187.35v-.21c0-20.84,16.6-37.71,38.75-37.71s38.54,16.7,38.54,37.5v.21c0,20.83-16.6,37.71-38.75,37.71s-38.55-16.68-38.55-37.5h0ZM762.49,187.35v-.21c0-10.47-7.48-19.59-18.46-19.59s-18.14,8.9-18.14,19.37v.21c0,10.47,7.47,19.59,18.35,19.59s18.25-8.91,18.25-19.37ZM807.13,191.6v-40.7h20.19v40.31c0,10.47,5.21,15.43,13.22,15.43s13.22-4.77,13.22-14.93v-40.84h20.19v40.2c0,23.43-13.22,33.66-33.61,33.66s-33.22-10.47-33.22-33.15M904.38,150.89h27.69c25.62,0,40.48,14.92,40.48,35.83v.21c0,20.9-15.08,36.46-40.9,36.46h-27.27v-72.53.03h0ZM932.36,205.59c11.9,0,19.77-6.62,19.77-18.33v-.21c0-11.61-7.89-18.34-19.77-18.34h-8.1v36.89h8.1ZM1001.47,150.87h57.39v17.63h-37.52v12.32h33.93v16.68h-33.93v25.92h-19.87v-72.54ZM1086.53,150.87h19.9v54.92h34.75v17.62h-54.65v-72.54h0ZM1193.14,150.36h19.16l30.55,73.04h-21.32l-5.25-12.96h-27.69l-5.11,12.96h-20.92l30.55-73.04h.03,0ZM1210.57,194.8l-8-20.62-8.1,20.62h16.1,0ZM1268.48,150.89h33.93c10.96,0,18.57,2.92,23.36,7.87,4.23,4.13,6.35,9.75,6.35,16.88v.21c0,11.08-5.85,18.44-14.77,22.26l17.12,25.28h-22.97l-14.45-21.97h-8.71v21.97h-19.9v-72.53l.03.03h0ZM1301.49,185.71c6.76,0,10.67-3.31,10.67-8.59v-.21c0-5.7-4.09-8.59-10.77-8.59h-13.01v17.42h13.14l-.02-.03h0ZM1360.82,150.87h57.71v17.1h-38.02v10.97h34.45v15.87h-34.45v11.5h38.55v17.1h-58.24v-72.54ZM586.7,195.85c-2.78,6.36-8.65,10.87-16.44,10.87-10.85,0-18.35-9.12-18.35-19.59v-.22c0-10.47,7.28-19.37,18.14-19.37,8.18,0,14.42,5.09,17.07,12.03h20.95c-3.36-17.25-18.35-30.16-37.83-30.16-22.13,0-38.75,16.88-38.75,37.71v.21c0,20.83,16.38,37.5,38.55,37.5,18.93,0,33.74-12.41,37.65-29.03h-21l.03.03h0Z"/><path class="f" d="M359.22,222.05l2.22-7.82c2.68-9.3,1.68-17.89-2.8-24.19-4.13-5.83-10.96-9.25-19.28-9.65l-157.55-2.04c-.99-.02-1.92-.51-2.49-1.32-.56-.86-.69-1.93-.35-2.89.56-1.59,2-2.7,3.67-2.84l159.02-2.04c18.88-.87,39.28-16.35,46.44-35.22l9.07-23.97c.37-1.02.46-2.11.27-3.18-10.33-46.75-51.66-81.76-101.07-81.76-45.55,0-84.2,29.71-98.07,71-9.34-7.1-21.03-10.37-32.7-9.15-21.84,2.2-39.41,19.99-41.58,42.06-.56,5.51-.16,11.08,1.2,16.46-35.68,1.07-64.31,30.61-64.31,66.92,0,3.28.23,6.52.71,9.67.19,1.53,1.5,2.68,3.04,2.68h290.96c1.68-.03,3.15-1.16,3.6-2.78"/></g></g></g></svg>