<?xml version="1.0" encoding="UTF-8"?><svg xmlns="http://www.w3.org/2000/svg" xmlns:xlink="http://www.w3.org/1999/xlink" viewBox="0 0 250 250"><defs><style>.g,.h{isolation:isolate;}.i{fill:url(#e);}.h{fill:#fff;mix-blend-mode:screen;}</style><linearGradient id="e" x1="44.97" y1="-14.3" x2="209.39" y2="271.9" gradientUnits="userSpaceOnUse"><stop offset="0" stop-color="#927be5"/><stop offset="1" stop-color="#512bd4"/></linearGradient></defs><g class="g"><g id="b"><g id="c"><g id="d"><rect class="i" width="250" height="250"/><path id="f" class="h" d="M68.72,108.91v32.16c0,4.43,3.58,8.03,8.01,8.04h.03c4.44,0,8.04-3.59,8.04-8.03h0c0-4.45,3.6-8.05,8.04-8.05s8.04,3.6,8.04,8.04c0,13.32-10.8,24.12-24.12,24.12s-24.12-10.8-24.12-24.12v-32.16c0-13.32,10.8-24.12,24.12-24.12s24.12,10.8,24.12,24.12c0,4.44-3.6,8.04-8.04,8.04s-8.04-3.6-8.04-8.04h0c0-4.44-3.6-8.04-8.04-8.04s-8.04,3.6-8.04,8.04h0ZM197.36,141.08c0,4.44-3.59,8.04-8.02,8.04h-8.06v8.04c0,2.13-.84,4.18-2.36,5.69-3.13,3.14-8.21,3.15-11.35.02,0,0-.01-.01-.02-.02-1.51-1.51-2.35-3.55-2.36-5.69v-8.04h-16.08v8.04c.01,4.43-3.57,8.03-8,8.04-.01,0-.03,0-.04,0-4.43,0-8.03-3.58-8.04-8.01,0-.01,0-.02,0-.03v-8.04h-8.05c-4.44,0-8.04-3.6-8.04-8.04s3.6-8.04,8.04-8.04h8.04v-16.08h-8.04c-4.44,0-8.04-3.6-8.04-8.04s3.6-8.04,8.04-8.04h8.04v-8.04c0-4.44,3.6-8.04,8.04-8.04s8.04,3.6,8.04,8.04v8.04h16.08v-8.04c0-4.44,3.6-8.04,8.04-8.04s8.04,3.6,8.04,8.04v8.04h8.04c2.13,0,4.18.84,5.68,2.36,3.14,3.13,3.15,8.21.02,11.35,0,0-.01.01-.02.02-1.51,1.51-3.55,2.36-5.68,2.36h-8.04v16.08h8.04c4.44.01,8.03,3.6,8.04,8.04h0ZM165.2,116.96h-16.08v16.08h16.08v-16.08Z"/></g></g></g></g></svg>