<?xml version="1.0" encoding="UTF-8"?><svg id="b" xmlns="http://www.w3.org/2000/svg" viewBox="0 0 1030.79 250"><defs><style>.g{fill:#009688;}.h{fill:rgba(255,255,255,.98);}.i{fill:#fff;}.j{fill:none;}</style></defs><g id="c"><g id="d"><rect class="g" width="1030.79" height="250"/><path class="i" d="M318.4,194.93V54.06h84.97v16.87h-65.25v42.48h57.93v16.67h-57.93v64.84h-19.72ZM451.81,181.31h2.9c3.29-.03,6.25-.1,8.89-.2,3.52-.27,6.44-.68,8.74-1.22v-31.51c-1.36-.68-3.59-1.22-6.71-1.63-2.98-.54-6.64-.81-10.98-.81-2.85,0-5.89.2-9.15.61-3.12.41-6.03,1.29-8.74,2.64-2.57,1.22-4.74,2.98-6.5,5.29-1.76,2.17-2.64,5.08-2.64,8.74,0,6.78,2.17,11.52,6.5,14.23,4.34,2.57,10.23,3.86,17.68,3.86ZM450.19,86.58c7.11,0,13.16.89,18.13,2.68l.98.37c4.93,1.77,8.92,4.31,11.97,7.61l.64.72c3.25,3.52,5.56,7.79,6.91,12.81,1.36,4.88,2.03,10.3,2.03,16.26v66.06l-3.66.63c-.98.17-2.06.37-3.25.59l-2.21.3c-2.29.3-4.8.61-7.55.91-3.66.41-7.66.75-11.99,1.02-4.2.41-8.4.61-12.6.61-5.96,0-11.45-.61-16.47-1.83-5.01-1.22-9.35-3.12-13.01-5.69-3.66-2.71-6.5-6.23-8.54-10.57-2.03-4.34-3.05-9.55-3.05-15.65s1.15-10.84,3.46-15.04c2.44-4.2,5.69-7.59,9.76-10.16,4.07-2.57,8.81-4.47,14.23-5.69,5.42-1.22,11.11-1.83,17.08-1.83,1.9,0,3.86.14,5.89.41,2.03.14,3.93.41,5.69.81l1.81.27c.86.14,1.65.27,2.37.41l2.76.56c.32.07.58.13.78.18v-5.29c0-3.12-.34-6.17-1.02-9.15-.68-3.12-1.9-5.83-3.66-8.13-1.76-2.44-4.2-4.34-7.32-5.69-2.98-1.49-6.91-2.24-11.79-2.24-5.71,0-10.8.4-15.26,1.2l-3.11.58c-3.67.71-6.49,1.48-8.46,2.29l-2.24-15.65c2.44-1.08,6.5-2.1,12.2-3.05,5.12-.98,10.63-1.51,16.52-1.61l1.98-.02ZM546.64,181.31c7.72,0,13.42-1.02,17.08-3.05,3.79-2.03,5.69-5.29,5.69-9.76s-1.83-8.27-5.49-10.98c-3.66-2.71-9.69-5.76-18.09-9.15-4.07-1.63-8-3.25-11.79-4.88-3.66-1.76-6.84-3.79-9.55-6.1-2.71-2.3-4.88-5.08-6.5-8.33-1.63-3.25-2.44-7.25-2.44-11.99,0-9.35,3.46-16.74,10.37-22.16,6.91-5.56,16.33-8.33,28.26-8.33,2.98,0,5.96.2,8.94.61,2.98.27,5.76.68,8.33,1.22,2.21.35,4.17.75,5.87,1.19l2.27.62c1.35.38,2.43.72,3.24,1.03l-3.46,16.26c-2.03-1.08-5.22-2.17-9.55-3.25-4.34-1.22-9.55-1.83-15.65-1.83-5.29,0-9.89,1.08-13.82,3.25-3.93,2.03-5.89,5.29-5.89,9.76,0,2.3.41,4.34,1.22,6.1.95,1.76,2.3,3.39,4.07,4.88,1.9,1.36,4.2,2.64,6.91,3.86,2.71,1.22,5.96,2.51,9.76,3.86,5.01,1.9,9.49,3.79,13.42,5.69,3.93,1.76,7.25,3.86,9.96,6.3,2.85,2.44,5.01,5.42,6.5,8.94,1.49,3.39,2.24,7.59,2.24,12.6,0,9.76-3.66,17.14-10.98,22.16-7.18,5.01-17.48,7.52-30.9,7.52-8.88,0-15.93-.73-21.15-2.2l-4.26-1.23c-3.43-1.02-5.87-1.84-7.32-2.46l3.46-16.26,2.6.95c2.02.72,4.61,1.63,7.77,2.71,4.46,1.53,10.31,2.34,17.53,2.43h1.37ZM630.25,89.22h40.05v15.86h-40.05v48.79c0,5.29.41,9.69,1.22,13.21.81,3.39,2.03,6.1,3.66,8.13,1.63,1.9,3.66,3.25,6.1,4.07,2.44.81,5.29,1.22,8.54,1.22,5.69,0,10.23-.61,13.62-1.83l7.32-2.85,3.66,15.65c-1.9.95-5.22,2.1-9.96,3.46-4.74,1.49-10.16,2.24-16.26,2.24-7.18,0-13.15-.88-17.89-2.64-4.61-1.9-8.33-4.68-11.18-8.33-2.85-3.66-4.88-8.13-6.1-13.42-1.08-5.42-1.63-11.65-1.63-18.7V59.75l18.9-3.25v32.73ZM789.68,194.93c-2.3-6.1-4.47-12.06-6.5-17.89-2.03-5.96-4.13-11.99-6.3-18.09h-63.83l-12.81,35.98h-20.53l4.56-12.5c2.61-7.12,5.14-13.96,7.59-20.51l5.93-15.82c3.75-9.97,7.42-19.51,10.99-28.62,4.1-10.12,8.14-19.81,12.13-29.07l1.49-3.45c4.47-10.43,9.15-20.73,14.03-30.9h18.09c4.07,8.47,7.99,17.03,11.77,25.69l2.25,5.21c4.47,10.3,8.94,21.14,13.42,32.52,4.15,10.25,8.35,21.04,12.61,32.38l4.52,12.06c3.84,10.29,7.89,21.29,12.15,33h-21.55ZM771.19,142.68c-4.34-11.79-8.67-23.17-13.01-34.15-4.2-11.11-8.61-21.75-13.21-31.91-4.74,10.16-9.28,20.8-13.62,31.91-4.2,10.98-8.4,22.36-12.6,34.15h52.44ZM867.56,52.63c19.26,0,34.16,3.6,44.69,10.79l.84.59c10.71,7.45,16.06,18.63,16.06,33.54,0,8.13-1.49,15.11-4.47,20.94-2.85,5.69-7.05,10.37-12.6,14.03-5.42,3.52-12.06,6.1-19.92,7.72-7.86,1.63-16.74,2.44-26.63,2.44h-15.65v52.24h-19.72V56.09c5.56-1.36,11.72-2.24,18.5-2.64,6.22-.49,11.95-.76,17.18-.8h1.73ZM869.19,69.91l-3.83.02c-6.55.05-11.71.25-15.48.59v55.29h14.84c6.78,0,12.87-.41,18.29-1.22,5.42-.95,9.96-2.44,13.62-4.47,3.79-2.17,6.71-5.08,8.74-8.74,2.03-3.66,3.05-8.33,3.05-14.03,0-5.08-.95-9.33-2.86-12.74l-.39-.67c-2.03-3.52-4.88-6.3-8.54-8.33-3.52-2.17-7.66-3.66-12.4-4.47-4.74-.81-9.76-1.22-15.04-1.22ZM953.63,54.06h19.72v140.87h-19.72V54.06Z"/><path id="e" class="h" d="M163.12,37.11c-48.54,0-87.89,39.22-87.89,87.6h0c0,48.38,39.33,87.61,87.87,87.62h.02c48.54,0,87.89-39.22,87.89-87.6v-.02c0-48.38-39.35-87.6-87.89-87.6h0ZM157.05,76.77h55.3l-55.52,39.03h37.96l-80.89,56.84,17.56-39.01,8.03-17.84,17.56-39.03Z"/><path id="f" class="j" d="M57.44,19.33h211.35v211.35H57.44V19.33Z"/></g></g></svg>