<?xml version="1.0" encoding="UTF-8"?><svg id="b" xmlns="http://www.w3.org/2000/svg" viewBox="0 0 1300.45 250"><defs><style>.e{letter-spacing:0em;}.f{fill:#fff;}.g{letter-spacing:0em;}.h{letter-spacing:-.03em;}.i{letter-spacing:-.04em;}.j{letter-spacing:0em;}.k{font-family:MyriadPro-Regular, 'Myriad Pro';font-size:141.49px;}.l{letter-spacing:.01em;}</style></defs><g id="c"><g id="d"><rect class="f" width="1300.45" height="250"/><polygon points="211.2 39.97 211.2 150.79 160.02 150.39 160.02 91.15 100.99 91.15 100.79 39.97 211.2 39.97"/><polygon points="92.32 99.61 92.32 150.19 91.72 150.79 41.14 150.79 41.14 99.21 92.32 99.61"/><polygon points="151.56 99.61 151.56 150.39 100.76 150.62 100.56 99.59 151.56 99.61"/><rect x="100.38" y="158.85" width="51.18" height="51.18"/><text class="k" transform="translate(246.81 166.53)"><tspan class="e" x="0" y="0">R</tspan><tspan x="76.69" y="0">ea</tspan><tspan class="l" x="215.77" y="0">c</tspan><tspan x="281" y="0">t</tspan><tspan class="i" x="327.83" y="0"> </tspan><tspan class="g" x="352.02" y="0">T</tspan><tspan x="421.36" y="0">h</tspan><tspan class="j" x="499.88" y="0">r</tspan><tspan x="544.73" y="0">ee </tspan><tspan class="h" x="716.5" y="0">F</tspan><tspan x="781.73" y="0">iber</tspan></text></g></g></svg>