<?xml version="1.0" encoding="UTF-8"?><svg id="b" xmlns="http://www.w3.org/2000/svg" xmlns:xlink="http://www.w3.org/1999/xlink" viewBox="0 0 1279.96 250"><defs><style>.f{fill:#fff;}.g{fill:none;}.h{fill:#0f172a;}.h,.i{fill-rule:evenodd;}.j{clip-path:url(#e);}.i{fill:#38bdf8;}</style><clipPath id="e"><rect class="g" x="30.28" y="49.6" width="1219.4" height="150.8"/></clipPath></defs><g id="c"><g id="d"><rect class="f" width="1279.96" height="250"/><g class="j"><path class="i" d="M155.94,49.6c-33.51,0-54.45,16.76-62.83,50.27,12.57-16.76,27.23-23.04,43.98-18.85,9.56,2.39,16.39,9.33,23.96,17,12.32,12.51,26.58,26.98,57.73,26.98,33.51,0,54.45-16.76,62.83-50.27-12.57,16.76-27.23,23.04-43.98,18.85-9.56-2.39-16.39-9.33-23.96-17-12.32-12.51-26.58-26.98-57.73-26.98ZM93.11,125c-33.51,0-54.45,16.76-62.83,50.27,12.57-16.76,27.23-23.04,43.98-18.85,9.56,2.39,16.39,9.33,23.96,17,12.32,12.51,26.58,26.98,57.73,26.98,33.51,0,54.45-16.76,62.83-50.27-12.57,16.76-27.23,23.04-43.98,18.85-9.56-2.39-16.39-9.33-23.96-17-12.32-12.51-26.58-26.98-57.73-26.98Z"/><path class="h" d="M407.25,113.14h-21.93v42.45c0,11.32,7.43,11.14,21.93,10.43v17.16c-29.36,3.54-41.03-4.6-41.03-27.59v-42.45h-16.27v-18.39h16.27v-23.75l19.1-5.66v29.41h21.93s0,18.39,0,18.39ZM490.85,94.75h19.1v88.43h-19.1v-12.73c-6.72,9.37-17.16,15.03-30.95,15.03-24.05,0-44.04-20.34-44.04-46.51s19.99-46.51,44.04-46.51c13.79,0,24.23,5.66,30.95,14.86,0,0,0-12.56,0-12.56ZM462.91,167.26c15.92,0,27.94-11.85,27.94-28.3s-12.03-28.3-27.94-28.3-27.94,11.85-27.94,28.3,12.03,28.3,27.94,28.3ZM541.79,81.48c-6.72,0-12.2-5.66-12.2-12.2.01-6.73,5.47-12.19,12.2-12.2,6.73.01,12.19,5.47,12.2,12.2,0,6.54-5.48,12.2-12.2,12.2ZM532.24,183.18v-88.43h19.1v88.43s-19.1,0-19.1,0ZM573.44,183.18V54.07h19.1v129.11h-19.1ZM716.52,94.75h20.16l-27.77,88.43h-18.75l-18.39-59.6-18.57,59.6h-18.75l-27.77-88.43h20.16l17.16,61.02,18.57-61.02h18.22l18.39,61.02s17.33-61.02,17.33-61.02ZM760.38,81.48c-6.72,0-12.2-5.66-12.2-12.2.01-6.73,5.47-12.19,12.2-12.2,6.73.01,12.19,5.47,12.2,12.2,0,6.54-5.48,12.2-12.2,12.2ZM750.83,183.18v-88.43h19.1v88.43h-19.1ZM838.56,92.45c19.81,0,33.96,13.44,33.96,36.43v54.3h-19.1v-52.35c0-13.44-7.78-20.52-19.81-20.52s-22.46,7.43-22.46,25.47v47.4h-19.1v-88.43h19.1v11.32c5.84-9.2,15.39-13.62,27.41-13.62ZM963.06,59.38h19.1v123.8h-19.1v-12.73c-6.72,9.37-17.16,15.03-30.95,15.03-24.05,0-44.04-20.34-44.04-46.51s19.99-46.51,44.04-46.51c13.8,0,24.23,5.66,30.95,14.86v-47.93ZM935.12,167.26c15.92,0,27.94-11.85,27.94-28.3s-12.03-28.3-27.94-28.3-27.94,11.85-27.94,28.3,12.03,28.3,27.94,28.3ZM1046.19,185.48c-26.71,0-46.69-20.34-46.69-46.51s19.99-46.51,46.69-46.51c17.33,0,32.37,9.02,39.44,22.81l-16.45,9.55c-3.89-8.31-12.56-13.62-23.17-13.62-15.56,0-27.41,11.85-27.41,27.77s11.85,27.77,27.41,27.77c10.61,0,19.28-5.48,23.52-13.62l16.45,9.37c-7.43,13.97-22.46,22.99-39.79,22.99ZM1117.46,119.15c0,16.09,47.58,6.37,47.58,39.09,0,17.69-15.39,27.24-34.49,27.24-17.69,0-30.42-7.96-36.08-20.69l16.45-9.55c2.83,7.96,9.9,12.73,19.63,12.73,8.49,0,15.03-2.83,15.03-9.9,0-15.74-47.58-6.9-47.58-38.56,0-16.62,14.33-27.06,32.37-27.06,14.5,0,26.53,6.72,32.72,18.39l-16.09,9.02c-3.18-6.9-9.37-10.08-16.62-10.08s-12.91,3.01-12.91,9.37h0ZM1198.99,119.15c0,16.09,47.58,6.37,47.58,39.09,0,17.69-15.39,27.24-34.49,27.24-17.69,0-30.42-7.96-36.08-20.69l16.45-9.55c2.83,7.96,9.9,12.73,19.63,12.73,8.49,0,15.03-2.83,15.03-9.9,0-15.74-47.58-6.9-47.58-38.56,0-16.62,14.33-27.06,32.37-27.06,14.5,0,26.53,6.72,32.72,18.39l-16.09,9.02c-3.18-6.9-9.37-10.08-16.62-10.08s-12.91,3.01-12.91,9.37h0Z"/></g></g></g></svg>