<?xml version="1.0" encoding="UTF-8"?><svg id="b" xmlns="http://www.w3.org/2000/svg" viewBox="0 0 1254.7 250"><defs><style>.e{fill:#ea4335;}.f{fill:#fff;}.g{letter-spacing:.01em;}.h{fill:#4285f4;}.i{fill:none;}.j{fill:#34a853;}.k{letter-spacing:-.07em;}.l{letter-spacing:0em;}.m{font-family:MyriadPro-Regular, 'Myriad Pro';font-size:159.82px;}.n{fill:#fbbc05;}</style></defs><g id="c"><g id="d"><rect class="f" width="1254.7" height="250"/><path class="h" d="M231.56,127.13c0-6.64-.6-13.03-1.7-19.15h-88.2v36.27h50.4c-2.21,11.66-8.85,21.54-18.81,28.18v23.58h30.39c17.71-16.35,27.92-40.35,27.92-68.87Z"/><path class="j" d="M141.66,218.65c25.28,0,46.48-8.34,61.98-22.65l-30.39-23.58c-8.34,5.62-18.98,9.02-31.58,9.02-24.35,0-45.04-16.43-52.44-38.57h-31.16v24.18c15.41,30.56,46.99,51.59,83.6,51.59Z"/><path class="n" d="M89.21,142.79c-1.87-5.62-2.98-11.58-2.98-17.79s1.11-12.17,2.98-17.79v-24.18h-31.16c-6.38,12.6-10.05,26.82-10.05,41.97s3.66,29.37,10.05,41.97l24.26-18.9s6.9-5.28,6.9-5.28Z"/><path class="e" d="M141.66,68.64c13.79,0,26.05,4.77,35.84,13.96l26.82-26.82c-16.26-15.15-37.37-24.43-62.66-24.43-36.61,0-68.19,21.03-83.6,51.68l31.16,24.18c7.41-22.13,28.09-38.57,52.44-38.57Z"/><path class="i" d="M48.01,31.35h187.29v187.29H48.01V31.35Z"/><text class="m" transform="translate(274.13 171.71)"><tspan class="k" x="0" y="0">T</tspan><tspan x="68.08" y="0">esse</tspan><tspan class="l" x="354.8" y="0">r</tspan><tspan x="406.27" y="0">a</tspan><tspan class="g" x="483.3" y="0">c</tspan><tspan x="556.98" y="0">t OCR</tspan></text></g></g></svg>