<?xml version="1.0" encoding="UTF-8"?><svg id="b" xmlns="http://www.w3.org/2000/svg" viewBox="0 0 698.08 250"><defs><style>.e{fill:#f7a41d;}.f{fill:#121212;}.g{fill:#fff;}</style></defs><g id="c"><g id="d"><rect class="g" width="698.08" height="250"/><polygon class="e" points="132.36 56.6 106.71 87.95 93.88 68 132.36 56.6"/><polygon class="e" points="132.36 56.6 113.83 72.27 106.71 87.95 98.16 87.95 98.16 160.63 110.98 160.63 95.31 167.75 83.9 191.98 66.8 191.98 66.8 56.6 132.36 56.6" shape-rendering="crispEdges"/><polygon class="e" points="110.98 160.63 83.9 191.98 72.5 176.3 110.98 160.63"/><polygon class="e" points="146.61 56.6 155.16 76.55 119.53 87.95 146.61 56.6"/><polygon class="e" points="146.61 56.6 224.99 56.6 224.99 87.95 119.53 87.95 146.61 70.85 146.61 56.6" shape-rendering="crispEdges"/><polygon class="e" points="232.11 160.63 205.04 191.98 195.06 173.45 232.11 160.63"/><polygon class="e" points="232.11 160.63 209.31 173.45 205.04 191.98 126.66 191.98 126.66 160.63 232.11 160.63" shape-rendering="crispEdges"/><polygon class="e" points="280.57 25.24 140.91 191.98 71.08 224.76 210.74 56.6 280.57 25.24"/><polygon class="e" points="267.74 56.6 266.32 82.25 240.66 89.37 267.74 56.6"/><polygon class="e" points="284.84 56.6 284.84 191.98 217.86 191.98 237.81 174.88 244.94 160.63 253.49 160.63 253.49 89.37 240.66 89.37 254.91 76.55 267.74 56.6 284.84 56.6" shape-rendering="crispEdges"/><polygon class="e" points="244.94 160.63 252.06 182 217.86 191.98 244.94 160.63"/><polygon class="f" points="437.33 56.6 437.33 77.97 393.15 82.25 319.04 82.25 319.04 56.6 437.33 56.6" shape-rendering="crispEdges"/><polygon class="f" points="437.33 77.97 361.8 166.33 361.8 172.03 317.62 172.03 393.15 82.25 393.15 77.97 437.33 77.97"/><polygon class="f" points="438.75 166.33 438.75 191.98 317.62 191.98 317.62 172.03 360.37 166.33 438.75 166.33" shape-rendering="crispEdges"/><rect class="f" x="454.43" y="56.6" width="31.35" height="135.38" shape-rendering="crispEdges"/><polygon class="f" points="628.29 120.72 628.29 176.3 602.64 176.3 602.64 140.68 579.83 125 559.88 120.72 628.29 120.72" shape-rendering="crispEdges"/><polygon class="f" points="579.83 122.15 602.64 140.68 559.88 120.72 579.83 122.15"/><path class="f" d="M628.29,176.3c-14.54,10.4-34.2,17.1-53.73,17.1-41.33,0-72.82-29.64-72.82-68.83s32.06-68.55,74.1-68.55c20.38,0,41.61,7.84,55.44,19.95l-18.53,21.38c-10.12-8.98-23.94-14.25-36.91-14.25-24.23,0-43.04,18.38-43.04,42.04s18.95,42.18,43.18,42.18c8.12,0,18.24-3.28,27.08-7.84l25.22,16.82Z"/></g></g></svg>