<svg xmlns="http://www.w3.org/2000/svg" viewBox="0 0 969.6 250"><path d="M0 0h969.6v250H0z" style="fill:#fff"/><path d="M61.94 160.63c4.63 2.96 15.36 7.59 26.65 7.59 20.91 0 27.39-13.32 27.2-23.32-.19-16.84-15.36-24.06-31.09-24.06h-9.07v-12.21h9.07c11.84 0 26.83-6.11 26.83-20.36 0-9.62-6.11-18.14-21.1-18.14-9.62 0-18.88 4.26-24.06 7.96l-4.26-11.84C68.4 61.62 80.62 57 93.57 57c23.69 0 34.42 14.06 34.42 28.68 0 12.4-7.4 22.95-22.21 28.31v.37c14.8 2.96 26.83 14.06 26.83 30.9 0 19.25-14.99 36.09-43.86 36.09-13.51 0-25.35-4.26-31.28-8.14l4.44-12.58ZM158.73 56.25c9.81-1.48 21.47-2.59 34.24-2.59 23.13 0 39.6 5.37 50.52 15.54 11.1 10.18 17.58 24.61 17.58 44.78s-6.29 37.01-17.95 48.49c-11.66 11.66-30.9 17.95-55.15 17.95-11.47 0-21.1-.56-29.24-1.48zm16.1 110.3c4.07.74 9.99.93 16.29.93 34.42 0 53.11-19.25 53.11-52.93.19-29.42-16.47-48.12-50.52-48.12-8.33 0-14.62.74-18.88 1.67zM321.21 56.07c7.77-1.3 17.95-2.41 30.91-2.41 15.92 0 27.57 3.7 34.98 10.36 6.85 5.92 10.92 14.99 10.92 26.09s-3.33 20.17-9.62 26.65c-8.51 9.07-22.39 13.69-38.12 13.69-4.81 0-9.25-.19-12.95-1.11v49.97h-16.1V56.07Zm16.1 60.14c3.52.93 7.96 1.3 13.32 1.3 19.43 0 31.27-9.44 31.27-26.65s-11.66-24.43-29.42-24.43c-7.03 0-12.4.56-15.17 1.3v48.49ZM416.15 117.69c0-10.55-.18-19.62-.74-27.94h14.25l.55 17.58h.74c4.07-12.03 13.88-19.62 24.8-19.62 1.85 0 3.15.19 4.63.56v15.36c-1.67-.37-3.33-.56-5.55-.56-11.47 0-19.62 8.7-21.84 20.91-.37 2.22-.74 4.81-.74 7.59v47.75h-16.1V117.7ZM495.53 64.58c.19 5.55-3.89 9.99-10.36 9.99-5.74 0-9.81-4.44-9.81-9.99s4.26-10.18 10.18-10.18 9.99 4.44 9.99 10.18M477.4 179.32V89.75h16.29v89.57zM520.7 113.99c0-9.25-.18-16.84-.74-24.24h14.43l.93 14.8h.37c4.44-8.51 14.8-16.84 29.61-16.84 12.4 0 31.64 7.4 31.64 38.12v53.48h-16.29v-51.63c0-14.43-5.37-26.46-20.73-26.46-10.73 0-19.06 7.59-21.84 16.66-.74 2.04-1.11 4.81-1.11 7.59v53.85h-16.29v-65.33ZM642.29 64.02v25.72h23.32v12.4h-23.32v48.3c0 11.1 3.15 17.4 12.21 17.4 4.26 0 7.4-.56 9.44-1.11l.74 12.21c-3.15 1.3-8.14 2.22-14.43 2.22-7.59 0-13.69-2.41-17.58-6.85-4.63-4.81-6.29-12.77-6.29-23.32v-48.86H612.5v-12.4h13.88V68.26L642.3 64ZM702.06 64.58c.19 5.55-3.89 9.99-10.36 9.99-5.74 0-9.81-4.44-9.81-9.99s4.26-10.18 10.18-10.18 9.99 4.44 9.99 10.18m-18.14 114.74V89.75h16.29v89.57zM727.23 113.99c0-9.25-.19-16.84-.74-24.24h14.43l.92 14.8h.37c4.44-8.51 14.8-16.84 29.61-16.84 12.4 0 31.65 7.4 31.65 38.12v53.48h-16.29v-51.63c0-14.43-5.37-26.46-20.73-26.46-10.73 0-19.06 7.59-21.84 16.66-.74 2.04-1.11 4.81-1.11 7.59v53.85h-16.29v-65.33ZM907.1 89.75c-.37 6.48-.74 13.69-.74 24.61v52c0 20.54-4.07 33.13-12.77 40.9-8.7 8.14-21.28 10.73-32.57 10.73s-22.58-2.59-29.79-7.4l4.07-12.4c5.92 3.7 15.17 7.03 26.28 7.03 16.66 0 28.87-8.7 28.87-31.27v-9.99h-.37c-5 8.33-14.62 14.99-28.5 14.99-22.21 0-38.12-18.88-38.12-43.67 0-30.35 19.8-47.56 40.34-47.56 15.54 0 24.06 8.14 27.94 15.54h.37l.74-13.51zm-16.84 35.34c0-2.78-.19-5.18-.93-7.4-2.96-9.44-10.92-17.21-22.76-17.21-15.54 0-26.65 13.14-26.65 33.87 0 17.58 8.88 32.2 26.46 32.2 9.99 0 19.06-6.29 22.58-16.66.93-2.78 1.3-5.92 1.3-8.7z"/></svg>