<svg xmlns="http://www.w3.org/2000/svg" viewBox="0 0 573.6 250"><path d="M0 0h573.6v250H0z" style="fill:#ff000f"/><path d="M309.33 220.32h11.55c34.66-1.73 58.93-28.89 58.93-61.24 0-10.98-2.31-21.95-7.51-30.62h-62.97zM245.78 127.89h57.77v92.44h-57.77zM368.84 122.11c-5.78-8.09-13.87-14.44-22.53-19.06 10.4-7.51 17.33-19.64 17.33-32.93 0-22.53-17.91-40.44-40.44-40.44h-13.87v92.44h59.51ZM245.78 29.68h57.77v92.44h-57.77zM465.31 220.32h11.55c34.66-1.73 58.93-28.89 58.93-61.24 0-10.98-2.31-21.95-7.51-30.62h-62.97zM401.77 127.89h57.77v92.44h-57.77zM524.82 122.11c-5.78-8.09-13.87-14.44-22.53-19.06 10.4-7.51 17.33-19.64 17.33-32.93 0-22.53-17.91-40.44-40.44-40.44h-13.87v92.44h59.51ZM401.77 29.68h57.77v92.44h-57.77zM70.73 127.89 37.8 220.32h47.95l13.87-40.44h30.62v-51.99zM130.24 29.68h-24.85l-32.93 92.43h57.78zM136.01 179.88h30.62l13.87 40.44h47.95l-32.93-92.43h-59.51zM193.79 122.11l-32.93-92.43h-24.85v92.43z" style="fill:#fff"/></svg>