<svg xmlns="http://www.w3.org/2000/svg" viewBox="0 0 255 255"><path d="M255 201.11V255H0v-53.89l127.5-73.61z" style="fill:#004482"/><path d="M255 53.89v147.22L127.5 127.5z" style="fill:#00599c"/><path d="M255 0v53.89L127.5 127.5 0 201.11V0z" style="fill:#659ad2"/><path d="M127.5 212.48c-46.86 0-84.98-38.12-84.98-84.98s38.12-84.98 84.98-84.98c30.24 0 58.44 16.27 73.59 42.47l-36.78 21.28c-7.59-13.11-21.69-21.26-36.82-21.26-23.43 0-42.49 19.06-42.49 42.49s19.06 42.49 42.49 42.49c15.12 0 29.23-8.15 36.82-21.26l36.78 21.28c-15.16 26.2-43.36 42.47-73.6 42.47Z" style="fill:#fff"/><path d="M212.48 122.78h-9.44v-9.44h-9.44v9.44h-9.44v9.44h9.44v9.44h9.44v-9.44h9.44zM247.89 122.78h-9.44v-9.44h-9.44v9.44h-9.44v9.44h9.44v9.44h9.44v-9.44h9.44z" style="fill:#fff"/></svg>