<svg xmlns="http://www.w3.org/2000/svg" viewBox="0 0 594.67 250"><path d="M0 0h594.67v250H0z" style="fill:#fff"/><path d="M190.37 175.24c-5.92 2.96-17.77 5.92-32.94 5.92-35.16 0-61.62-22.21-61.62-63.1s26.46-65.51 65.14-65.51c15.54 0 25.35 3.33 29.61 5.55l-3.89 13.14c-6.11-2.96-14.8-5.18-25.17-5.18-29.24 0-48.67 18.69-48.67 51.45 0 30.53 17.58 50.15 47.93 50.15 9.81 0 19.8-2.04 26.28-5.18l3.33 12.77ZM210.54 56.07c7.77-1.3 17.95-2.41 30.9-2.41 15.92 0 27.57 3.7 34.98 10.36 6.85 5.92 10.92 14.99 10.92 26.09s-3.33 20.17-9.62 26.65c-8.51 9.07-22.39 13.69-38.12 13.69-4.81 0-9.25-.19-12.95-1.11v49.97h-16.1V56.07Zm16.1 60.14c3.52.93 7.96 1.3 13.32 1.3 19.43 0 31.27-9.44 31.27-26.65s-11.66-24.43-29.42-24.43c-7.03 0-12.4.56-15.17 1.3v48.49ZM308.99 54.59h16.1v111.22h53.3v13.51h-69.4zM396.34 56.25c9.81-1.48 21.47-2.59 34.24-2.59 23.13 0 39.6 5.37 50.52 15.54 11.1 10.18 17.58 24.61 17.58 44.78s-6.29 37.01-17.95 48.49c-11.66 11.66-30.91 17.95-55.15 17.95-11.47 0-21.1-.56-29.24-1.48zm16.1 110.3c4.07.74 9.99.93 16.29.93 34.42 0 53.11-19.25 53.11-52.93.18-29.42-16.47-48.12-50.52-48.12-8.33 0-14.62.74-18.88 1.67z"/></svg>