<svg xmlns="http://www.w3.org/2000/svg" viewBox="0 0 250 250"><defs><linearGradient id="a" x1="44.97" x2="209.39" y1="-14.3" y2="271.9" gradientUnits="userSpaceOnUse"><stop offset="0" stop-color="#927be5"/><stop offset="1" stop-color="#512bd4"/></linearGradient></defs><g style="isolation:isolate"><path d="M0 0h250v250H0z" style="fill:url(#a)"/><path d="M68.72 108.91v32.16c0 4.43 3.58 8.03 8.01 8.04h.03c4.44 0 8.04-3.59 8.04-8.03a8.04 8.04 0 1 1 16.08-.01c0 13.32-10.8 24.12-24.12 24.12s-24.12-10.8-24.12-24.12v-32.16c0-13.32 10.8-24.12 24.12-24.12s24.12 10.8 24.12 24.12a8.04 8.04 0 0 1-16.08 0 8.04 8.04 0 0 0-16.08 0m128.64 32.17c0 4.44-3.59 8.04-8.02 8.04h-8.06v8.04c0 2.13-.84 4.18-2.36 5.69a8.024 8.024 0 0 1-11.35.02l-.02-.02a8.08 8.08 0 0 1-2.36-5.69v-8.04h-16.08v8.04a8.02 8.02 0 0 1-8 8.04h-.04c-4.43 0-8.03-3.58-8.04-8.01v-8.07h-8.05a8.04 8.04 0 0 1 0-16.08h8.04v-16.08h-8.04a8.04 8.04 0 0 1 0-16.08h8.04v-8.04a8.04 8.04 0 0 1 16.08 0v8.04h16.08v-8.04a8.04 8.04 0 0 1 16.08 0v8.04h8.04c2.13 0 4.18.84 5.68 2.36a8.024 8.024 0 0 1 .02 11.35l-.02.02a8.03 8.03 0 0 1-5.68 2.36h-8.04v16.08h8.04c4.44.01 8.03 3.6 8.04 8.04Zm-32.16-24.12h-16.08v16.08h16.08z" style="fill:#fff;isolation:isolate;mix-blend-mode:screen"/></g></svg>