<svg xmlns="http://www.w3.org/2000/svg" viewBox="0 0 250 250"><path d="M0 0h250v250H0z" style="fill:#512bd4"/><path d="M44.56 159.72c-1.77 0-3.27-.59-4.51-1.77-1.24-1.21-1.86-2.64-1.86-4.3s.62-3.14 1.86-4.35 2.74-1.81 4.51-1.81 3.31.6 4.55 1.81c1.27 1.21 1.9 2.66 1.9 4.35s-.63 3.1-1.9 4.3c-1.24 1.18-2.75 1.77-4.55 1.77M115.22 158.73h-11.49l-30.27-47.76c-.77-1.21-1.4-2.46-1.9-3.76h-.27c.24 1.39.35 4.37.35 8.93v42.59H61.48V93.75h12.24l29.26 46.62c1.24 1.93 2.03 3.26 2.39 3.99h.18c-.29-1.72-.44-4.64-.44-8.75V93.74h10.12v64.98ZM164.72 158.73h-35.57V93.75h34.16v9.15h-23.64v18.4h21.79v9.11h-21.79v19.21h25.06v9.11ZM215.28 102.9h-18.21v55.82h-10.52V102.9h-18.16v-9.15h46.89z" style="fill:#fff"/></svg>