<svg xmlns="http://www.w3.org/2000/svg" viewBox="0 0 870.16 250"><path d="M0 0h870.16v250H0z" style="fill:#fff"/><path d="M150.6 86.65c1.73-2.55 3.62-2.87 5.16-2.87s4.09.32 5.82 2.87c13.63 18.72 36.13 56.01 52.72 83.52 10.82 17.94 19.14 31.72 20.84 33.47 6.4 6.58 15.18 2.48 20.28-4.99 5.02-7.35 6.42-12.51 6.42-18.02 0-3.75-72.77-139.09-80.1-150.35-7.05-10.84-9.34-13.57-21.41-13.57h-9.03c-12.03 0-13.76 2.74-20.81 13.57-7.33 11.27-80.1 146.6-80.1 150.35 0 5.51 1.39 10.67 6.42 18.02 5.1 7.47 13.88 11.57 20.28 4.99 1.71-1.75 10.02-15.53 20.84-33.47 16.6-27.51 39.02-64.8 52.65-83.52ZM312.43 28.68v166.15h101.24v-33.7h-66.31V126h59V92.3h-59V62.39h66.31V28.68zM548.76 194.83l-42.01-60.29 39.17-56.25h-39.65l-19.35 27.53-19.12-27.53h-40.12l39.17 56.49-41.77 60.05h39.65l21.95-31.57 21.95 31.57h40.12ZM633.19 75.92c-16.05 0-28.55 6.65-36.58 18.75V78.29h-33.27v154.99h33.27v-54.83c8.02 12.1 20.53 18.75 36.58 18.75 29.97 0 53.81-27.3 53.81-60.76s-23.83-60.52-53.81-60.52m-7.55 89.24c-16.28 0-29.03-12.34-29.03-28.72s12.74-28.72 29.03-28.72 29.03 12.82 29.03 28.72-12.98 28.72-29.03 28.72M759.58 75.92c-34.22 0-60.18 26.11-60.18 60.76s25.96 60.52 60.18 60.52 60.18-25.87 60.18-60.52-26.2-60.76-60.18-60.76m0 32.04c15.57 0 27.61 12.1 27.61 28.72s-12.04 28.48-27.61 28.48-27.61-12.34-27.61-28.48 11.8-28.72 27.61-28.72"/></svg>