<svg xmlns="http://www.w3.org/2000/svg" xml:space="preserve" id="Layer_1" width="600.96" height="250" x="0" y="0" version="1.1">
  <style>
    .st270{fill:#0b4819}.st272{fill:#084010}.st274{fill:#1a5c34}
  </style>
  <g id="FFmpeg_00000129894364036728592460000005565369558178787738_">
    <path id="_x3C_Rectangle_x3E__00000178893548918339862960000009380279890192272812_" fill="#fff" d="M0 0h600.96v250H0z"/>
    <path d="M32.28 82.43V64.94l11.74 4.05v16.27l-11.74-2.83zm9.47 71.92V89.31l11.22 2.37v60.45l-11.22 2.22z" class="st270"/>
    <path fill="#105c80" d="M96.65 64.91 67.8 98v14.08l42.78-48.24 67.76-5.25-99.67 103.89 13.27.7 72.4-74.05v69.99l-8.04 7.56 20.4 1.1v19.37l-63.98-4.96 32.62-31.64v-15.59L98.7 181.11l-55.83-4.32 89.56-96.31-14.74.8-64.71 70.85V91.68l6.13-7.24-15.08.82V68.99l52.62-4.08z"/>
    <path d="m41.75 89.31 6.49-7.81 10.86 2.95-6.13 7.24-11.22-2.38z" class="st270"/>
    <path d="M57.47 96.06 67.8 98v14.08l-10.33-.85V96.06z" class="st272"/>
    <path fill="#0c541e" d="m69.03 165.6 9.64-3.12 13.27.7-8.76 3.24-14.15-.82z"/>
    <path d="m88.21 60.21 8.43 4.71L67.8 98l-10.33-1.94 30.74-35.85z" class="st274"/>
    <path d="m57.47 111.23 45.66-52.29 7.45 4.89-42.78 48.25-10.33-.85z" class="st270"/>
    <path d="m110.75 77.8 6.93 3.48-64.71 70.85-11.22 2.22 69-76.55z" class="st274"/>
    <path d="M31.05 180.82 126.6 76.86l5.82 3.62-89.56 96.32-11.81 4.02z" class="st270"/>
    <path d="m140.52 136 4.8-1.04-46.62 46.15-8.29 4.73L140.52 136z" class="st274"/>
    <path d="M140.52 152.95V136l4.8-1.04v15.59l-4.8 2.4z" class="st270"/>
    <path d="m105.41 187.11 35.11-34.16 4.8-2.4-32.62 31.64-7.29 4.92z" class="st270"/>
    <path fill="#13802d" d="m161.1 162.34-8.72 8.19 3.91-3.85 8.04-7.56-3.23 3.22z"/>
    <path d="m83.18 166.42 77.92-80.3 3.24 3.01-72.4 74.05-8.76 3.24z" class="st270"/>
    <path d="m161.1 86.12 3.24 3.01v69.99l-3.24 3.22V86.12zm13.42 85.72 2.17-4.06v19.37l-2.17 5.81v-21.12z" class="st272"/>
    <path d="m176.32 52.75 2.03 5.84-99.68 103.89-9.64 3.12L176.32 52.75z" class="st274"/>
    <radialGradient id="SVGID_1_" cx="177.062" cy="-3755.516" r="35.368" gradientTransform="translate(-295.529 7620.127) scale(2.008)" gradientUnits="userSpaceOnUse">
      <stop offset="0" stop-color="#fff"/>
      <stop offset="1" stop-color="#007808"/>
    </radialGradient>
    <path fill="url(#SVGID_1_)" d="M88.21 60.21 57.47 96.06v15.17l45.66-52.29 73.19-6.19L69.03 165.6l14.15.82 77.92-80.3v76.22l-8.72 8.19 22.14 1.31v21.12l-69.11-5.85 35.11-34.16V136L90.4 185.85l-59.35-5.02L126.6 76.86l-15.85.94-69 76.55V89.31l6.49-7.81-15.96.94v-17.5l55.93-4.73z"/>
    <path d="M217.362 124.034h24.616v15.408h-24.616v34.27h-13.264V90.914h46.618v15.461h-33.354v17.659zm51.64 0h24.617v15.408h-24.617v34.27h-13.237V90.914h46.618v15.461h-33.38v17.659zm53.786 14.362v35.316h-15.46V120.11l15.46-1.648v4.919c3.453-3.244 7.874-4.866 13.237-4.866 6.985 0 12.322 2.119 16.01 6.357 4.055-4.238 10.124-6.357 18.208-6.357 6.985 0 12.321 2.119 16.01 6.357 3.689 4.238 5.52 9.104 5.52 14.623v34.218h-15.46V143.34c0-3.689-.838-6.54-2.486-8.555-1.648-2.014-4.343-3.086-8.058-3.191-3.06.21-5.702 2.25-7.952 6.07a22.037 22.037 0 0 0-.288 3.478v32.57h-15.46V143.34c0-3.689-.838-6.54-2.486-8.555-1.648-2.014-4.317-3.086-8.057-3.217-3.349.261-6.279 2.511-8.738 6.828zm76.755 58.52v-76.78l15.46-1.648v4.42c4.108-2.955 8.162-4.42 12.139-4.42 8.476 0 15.173 2.746 20.143 8.266 4.97 5.52 7.456 11.956 7.456 19.307 0 7.35-2.485 13.786-7.456 19.306-4.97 5.52-11.693 8.267-20.143 8.267-5.52-.367-9.575-1.858-12.139-4.474v27.756h-15.46zm15.46-55.826v8.947c.733 6.174 4.605 9.81 11.59 10.857 8.842-.707 13.786-5.285 14.91-13.735-.365-10.307-5.336-15.644-14.91-16.01-6.985 1.125-10.857 4.421-11.59 9.941zm42.197 5.023c0-8.084 2.564-14.728 7.717-19.882 5.154-5.154 11.773-7.717 19.882-7.717 8.084 0 14.545 2.563 19.307 7.717 4.787 5.154 7.168 11.772 7.168 19.882v5.52h-38.09c.366 2.956 1.648 5.232 3.872 6.906 2.197 1.648 4.787 2.485 7.717 2.485 5.154 0 9.758-1.465 13.787-4.42l8.842 8.815c-4.055 5.52-11.59 8.267-22.629 8.267-8.083 0-14.728-2.564-19.882-7.717s-7.69-11.746-7.69-19.856zm35.343-12.4c-2.224-1.648-4.788-2.485-7.718-2.485-2.93 0-5.52.837-7.717 2.485s-3.322 3.95-3.322 6.906h22.08c-.027-2.956-1.126-5.258-3.323-6.906zm77.357-13.525v49.13c0 7.717-2.303 14.178-6.907 19.384-4.604 5.18-10.386 7.927-17.397 8.24l-3.322.34c-10.674-.209-18.967-3.27-24.853-9.155l7.168-8.267c4.055 2.956 8.973 4.604 14.729 4.97 5.886 0 9.862-1.386 11.955-4.133s3.113-5.808 3.113-9.104v-2.747c-4.107 3.323-8.895 4.97-14.362 4.97-8.476 0-14.807-2.484-19.045-7.455s-6.357-11.694-6.357-20.143c0-8.084 2.302-14.729 6.907-19.882 4.604-5.154 11.118-7.718 19.594-7.718 6.252.367 10.673 2.04 13.237 5.023v-5.023l15.54 1.57zm-15.462 30.895v-8.946c-.732-6.174-4.604-9.81-11.589-10.857-9.208.34-14.179 4.918-14.911 13.734.366 10.307 5.337 15.644 14.911 16.01 7.011-1.098 10.857-4.42 11.59-9.94z"/>
  </g>
</svg>
