<svg xmlns="http://www.w3.org/2000/svg" viewBox="0 0 490.88 250"><path d="M0 0h490.88v250H0z" style="fill:#3a75b0"/><path d="M253.34 199.11c0 14.8-4.98 25.9-15 33.35l-7.24-6.12c3.2-3.7 5.33-8.17 6.39-13.36.72-3.53 1.11-8.42 1.11-14.67v-81.54h14.74v82.35Zm66.13 9.53h-10.91l-1.11-7.36c-6.73 5.83-13.72 8.72-21 8.72-13.63 0-20.45-6.25-20.45-18.8 0-7.19 2.77-12.76 8.31-16.76 6.01-4.25 14.78-6.38 26.33-6.38h4.9v-6.13c0-8.08-4.69-12.12-14.02-12.12-6.09 0-12.74 1.32-19.9 3.96l-2.04-8.59c8.44-3.7 17.04-5.57 25.78-5.57 16.1 0 24.11 6.85 24.11 20.54zm-13.94-15.65v-16.08h-5.84c-13.16 0-19.77 4.08-19.77 12.25 0 7.06 3.49 10.63 10.48 10.63 4.81 0 9.84-2.25 15.12-6.81Zm82.1-52.11c-4.43 25.05-11.46 47.64-21 67.8h-17.3l-20.88-67.8h15.12l12.95 41.64 2.85 12.55c6.73-18.5 11.2-36.58 13.51-54.19h14.74Zm57.52 67.76h-10.91l-1.11-7.36c-6.73 5.83-13.72 8.72-21 8.72-13.63 0-20.45-6.25-20.45-18.8 0-7.19 2.77-12.76 8.31-16.76 6.01-4.25 14.78-6.38 26.33-6.38h4.9v-6.13c0-8.08-4.69-12.12-14.06-12.12-6.09 0-12.74 1.32-19.9 3.96l-2.05-8.59c8.44-3.7 17.04-5.57 25.78-5.57 16.1 0 24.11 6.85 24.11 20.54v48.45l.04.04Zm-13.89-15.65v-16.08h-5.88c-13.16 0-19.77 4.08-19.77 12.25 0 7.06 3.49 10.63 10.48 10.63 4.81 0 9.84-2.25 15.12-6.81h.04Z" style="fill:#fff;fill-rule:evenodd"/><path d="M65.93 145.35c0-5.95 22.62-9.27 33.15-10.08l1.02.6c-4.05.72-20.28 3.57-20.28 7.32 0 4.04 24.88 6.72 39.37 6.72 24.54 0 41.24-3.7 45.71-4.93l6.26 3.66c-4.3 2.08-22.75 7.61-51.98 7.61-32.51 0-53.21-6.34-53.21-10.85l-.04-.04Zm49.51 83.58c-12.87.13-28.54-.94-41.75-3.15l-1.24.72c13.16 3.87 31.48 6.17 51.59 6 39.54-.34 71.58-10.12 72.21-21.91l-.47-.26c-2.64 3.23-19.77 18.12-80.35 18.63v-.04Zm3.36-7.57c32.34-.3 68.55-6.59 68.47-17.23 0-1.91-1.28-3.23-2.34-4.04l-.51.3c-2.98 8.21-28.29 14.29-65.61 14.63-24.11.21-57.47-5.57-57.52-12.21-.04-6.68 15.81-10.34 15.81-10.34l-1.11-.64c-10.74 1.45-30.33 6.51-30.25 13.87.09 10.63 45.12 15.87 73.07 15.65Zm72.9-73.16c-.64 12.46-12.18 20.2-23.73 26.8l1.07.6c12.31-3.45 34.25-13.53 32.42-28.97-.89-7.7-7.97-13.23-17.17-13.23-2.85 0-5.41.51-7.5 1.15l-.43 1.11c8.22-1.62 15.76 4.38 15.34 12.55Zm-95.05 37.05c-3.75.77-11.93 2.64-11.93 6.59 0 5.49 17.51 9.7 34.42 9.7 23.26 0 32.76-5.95 33.23-6.29l-9.67-5.57c-4.13.98-11.03 2.51-23.52 2.51-13.93 0-23.01-2.38-23.01-4.98 0-.55.34-1.19.98-1.7l-.47-.3-.04.04Zm57.13-18.55c-5.37 1.53-17.38 3.96-34.64 3.96s-30.72-2.89-30.76-6.3c0-2.25 2.73-3.23 2.73-3.23l-.47-.3c-8.09 1.45-15.64 3.66-15.59 6.93.09 6 23.05 10.51 44.1 10.51 17.89 0 35.02-2.98 42.77-6.93l-8.14-4.68z" style="fill:#fff"/><path d="M149.18 32.89c0 33.09-45.42 45.73-45.42 69.25 0 16.5 10.95 26.88 17.04 33.39l-.51.3c-7.67-4.76-27.82-16.8-27.82-36.67 0-27.86 52.15-41.22 52.15-72.86 0-3.91-.6-6.89-.98-8.51l.51-.3c1.66 2.08 4.98 7.27 4.98 15.4h.04Zm14.91 29.26-.55-.3c-9.88 3.32-40.3 15.31-40.3 37.64 0 12.63 12.36 19.65 12.36 31.48 0 4.21-2.39 8.21-4.35 10.55l.98.55c5.15-3.36 14.27-10.59 14.27-19.91 0-7.91-10.95-17.4-10.95-27.56 0-15.99 21.13-28.58 28.55-32.5v.04Z" style="fill:#f29111"/></svg>