<svg xmlns="http://www.w3.org/2000/svg" viewBox="0 0 938.84 250"><path d="M0 0h938.84v250H0z" style="fill:#fff"/><path d="M189.22 121.6c-1.08-2.16-2.82-3.9-4.97-4.98L88.13 68.59a11 11 0 0 0-5.64-1.15 11.1 11.1 0 0 0-7.44 3.48c-1.88 2-3.03 4.69-3.03 7.63v96.08c0 6.14 4.97 11.12 11.1 11.13 1.74 0 3.45-.4 5-1.18l96.12-48.04c5.5-2.75 7.73-9.45 4.97-14.94Zm-59.45 9.33H117.3v12.51h-8.69v-12.52h-12.5v-8.71h12.5v-12.46h8.69v12.47h12.47v8.7Z" style="fill:#ffde00"/><path d="M379.88 63.69v10.12h7.22c2.37 0 3.75 1.38 3.75 3.78v106.69h11.31v-7.53c.01-2.36-.09-4.71-.3-7.06h.3s7.75 16.63 28.35 16.63c22.61 0 38.88-17.81 38.88-45.09S455 95.95 431.86 95.95s-29.37 16.49-29.37 16.49h-.33s.33-3.12.33-7.06V74.19c0-7.36-3.09-10.51-10.45-10.51h-12.16Zm78.73 0v10.67h1.74c3.25 0 4.96.5 6.18 3.75l39.6 106.17h12.88l39.63-106.17c1.21-3.25 2.9-3.75 6.15-3.75h23v99.3h-11.31v10.62h34.47v-10.62h-11.53v-99.3h11.53V63.69h-49.77c-8.55 0-11.14 1.54-14.23 9.95l-29.67 81.13c-2.21 6.15-4.63 15.61-4.63 15.61h-.3s-2.43-9.46-4.63-15.61l-29.7-81.13c-2.9-8.22-5.49-9.95-14.06-9.95h-5.32Zm163.3 0v10.67h11.14v99.46c0 7.39 3.09 10.45 10.48 10.45h52.12c7.39 0 10.45-3.06 10.45-10.45v-12h-11.14v8c0 2.59-1.38 3.86-3.78 3.86h-42.33c-2.4 0-3.78-1.27-3.78-3.86V128.9h45.22v-10.67h-45.22V74.36h41.14c2.4 0 3.78 1.19 3.78 3.75v8.08h11.31v-12c0-7.39-3.09-10.51-10.45-10.51h-68.94ZM205 63.74v10.62h7.39c2.37 0 3.75 1.19 3.75 3.75v95.71c0 7.39 3.09 10.45 10.48 10.45h49.91c7.36 0 10.45-3.06 10.45-10.45v-12h-11.31v8c0 2.59-1.38 3.78-3.78 3.78h-39.98c-2.37 0-3.75-1.19-3.75-3.75V74.16c0-7.36-3.09-10.42-10.48-10.42zm505.57 0v10.62h2.1c3.25 0 5.43.5 6.31 3.75l27.63 106.17h14.2l24.74-84.02c2.21-7.72 4.3-17.65 4.3-17.65h.33s1.85 10.09 3.92 17.81l22.47 83.86h14.2l27.8-106.17c.85-3.25 2.92-3.75 6.34-3.75h1.9V63.74h-5.32c-8.58 0-12.49 1.52-14.56 9.93l-20.96 83.14c-1.52 6.18-2.76 12.88-2.76 12.88h-.28s-1.08-6.7-2.76-12.88l-24.18-92.6h-11.86l-26.56 92.6c-1.71 6.18-3.31 12.88-3.31 12.88h-.28s-1.08-6.7-2.62-12.88l-20.87-83.17c-2.07-8.38-6.04-9.93-14.61-9.93h-5.32v.03Zm-377.7 32.21c-7.56 0-28.13 2.59-28.13 14.61v8.22h11.14v-5.52c0-6.34 12.52-7.53 16.82-7.53 15.77 0 22.28 6.34 22.28 24.35v1.02h-4.77c-14.95 0-52.83 1.05-52.83 29.67 0 17.15 14.89 25.53 29.29 25.53 21.62 0 28.84-18.7 28.68-18.7h.28s-.14 2.59-.14 6.34c0 7.06 2.92 10.31 10.29 10.31h11.86v-10.12h-7.22c-2.4 0-3.78-1.21-3.78-3.78v-41.31c0-18.53-6.51-33.12-33.75-33.12Zm97.26 10.67c15.94 0 27.24 13.51 27.24 34.61s-12.46 34.8-27.74 34.8c-18.5 0-27.47-17.32-27.47-34.63 0-24.51 13.57-34.77 27.96-34.77Zm-80.14 33.75h4.99v3.94c0 14.89-9.98 32.04-26.44 32.04-12.85 0-19.16-8.22-19.16-16.27 0-19.39 27.08-19.72 40.62-19.72Z" style="fill:#4c4d4f"/></svg>