<svg xmlns="http://www.w3.org/2000/svg" viewBox="0 0 1026.34 250"><path d="M0 0h1026.34v250H0z" style="fill:#ff637e"/><path d="M65.24 54.59h16.1v111.22h53.3v13.51h-69.4zM201.62 179.32l-1.3-11.29h-.55c-5 7.03-14.62 13.32-27.39 13.32-18.14 0-27.39-12.77-27.39-25.72 0-21.65 19.25-33.5 53.85-33.31v-1.85c0-7.4-2.04-20.73-20.36-20.73-8.33 0-17.03 2.59-23.32 6.66l-3.7-10.73c7.4-4.81 18.14-7.96 29.42-7.96 27.39 0 34.05 18.69 34.05 36.64v33.5c0 7.77.37 15.36 1.48 21.47h-14.8Zm-2.4-45.71c-17.77-.37-37.94 2.78-37.94 20.17 0 10.55 7.03 15.54 15.36 15.54 11.66 0 19.06-7.4 21.65-14.99.55-1.67.92-3.52.92-5.18v-15.54ZM239 162.66c4.81 3.15 13.32 6.48 21.47 6.48 11.84 0 17.4-5.92 17.4-13.32 0-7.77-4.63-12.03-16.66-16.47-16.1-5.74-23.69-14.62-23.69-25.35 0-14.43 11.66-26.28 30.9-26.28 9.07 0 17.03 2.59 22.02 5.55l-4.07 11.84c-3.52-2.22-9.99-5.18-18.32-5.18-9.62 0-14.99 5.55-14.99 12.21 0 7.4 5.37 10.73 17.03 15.17 15.54 5.92 23.5 13.69 23.5 27.02 0 15.73-12.21 26.83-33.5 26.83-9.81 0-18.88-2.41-25.17-6.11l4.07-12.4ZM323.58 137.49c.37 22.02 14.43 31.09 30.72 31.09 11.66 0 18.69-2.04 24.8-4.63l2.78 11.66c-5.74 2.59-15.54 5.55-29.79 5.55-27.57 0-44.04-18.14-44.04-45.15s15.92-48.3 42.01-48.3c29.24 0 37.01 25.72 37.01 42.19 0 3.33-.37 5.92-.55 7.59H323.6Zm47.74-11.66c.18-10.36-4.26-26.46-22.58-26.46-16.47 0-23.69 15.17-24.98 26.46zM407.22 117.69c0-10.55-.18-19.62-.74-27.94h14.25l.55 17.58h.74c4.07-12.03 13.88-19.62 24.8-19.62 1.85 0 3.15.19 4.63.56v15.36c-1.67-.37-3.33-.56-5.55-.56-11.47 0-19.62 8.7-21.84 20.91-.37 2.22-.74 4.81-.74 7.59v47.75h-16.1V117.7ZM594.68 175.24c-5.92 2.96-17.77 5.92-32.94 5.92-35.16 0-61.62-22.21-61.62-63.1s26.46-65.51 65.14-65.51c15.54 0 25.35 3.33 29.61 5.55l-3.89 13.14c-6.11-2.96-14.8-5.18-25.17-5.18-29.24 0-48.67 18.69-48.67 51.45 0 30.53 17.58 50.15 47.93 50.15 9.81 0 19.8-2.04 26.28-5.18l3.33 12.77ZM687.03 154.89c0 9.25.18 17.4.74 24.43h-14.43l-.93-14.62h-.37c-4.26 7.22-13.69 16.66-29.61 16.66-14.06 0-30.9-7.77-30.9-39.23V89.76h16.29v49.6c0 17.03 5.18 28.5 19.99 28.5 10.92 0 18.51-7.59 21.47-14.8.92-2.41 1.48-5.37 1.48-8.33V89.77h16.29v65.14ZM733.66 64.02v25.72h23.32v12.4h-23.32v48.3c0 11.1 3.15 17.4 12.21 17.4 4.26 0 7.4-.56 9.44-1.11l.74 12.21c-3.15 1.3-8.14 2.22-14.43 2.22-7.59 0-13.69-2.41-17.58-6.85-4.63-4.81-6.29-12.77-6.29-23.32v-48.86h-13.88v-12.4h13.88V68.26L733.67 64ZM794.92 64.02v25.72h23.32v12.4h-23.32v48.3c0 11.1 3.15 17.4 12.21 17.4 4.26 0 7.4-.56 9.44-1.11l.74 12.21c-3.15 1.3-8.14 2.22-14.43 2.22-7.59 0-13.69-2.41-17.58-6.85-4.63-4.81-6.29-12.77-6.29-23.32v-48.86h-13.88v-12.4h13.88V68.26L794.93 64ZM844.51 137.49c.37 22.02 14.43 31.09 30.72 31.09 11.66 0 18.69-2.04 24.8-4.63l2.78 11.66c-5.74 2.59-15.54 5.55-29.79 5.55-27.57 0-44.04-18.14-44.04-45.15s15.92-48.3 42.01-48.3c29.24 0 37.01 25.72 37.01 42.19 0 3.33-.37 5.92-.56 7.59h-62.92Zm47.75-11.66c.19-10.36-4.26-26.46-22.58-26.46-16.47 0-23.69 15.17-24.98 26.46zM928.16 117.69c0-10.55-.19-19.62-.74-27.94h14.25l.56 17.58h.74c4.07-12.03 13.88-19.62 24.8-19.62 1.85 0 3.15.19 4.63.56v15.36c-1.67-.37-3.33-.56-5.55-.56-11.47 0-19.62 8.7-21.84 20.91-.37 2.22-.74 4.81-.74 7.59v47.75h-16.1V117.7Z"/></svg>