<svg xmlns="http://www.w3.org/2000/svg" viewBox="0 0 704.71 250"><path d="M0 0h704.71v250H0z" style="fill:#cad5e2"/><path d="M116.81 118.33c-26.35-15.21-35.37-48.9-20.16-75.24 15.21-26.35 48.9-35.37 75.24-20.16 26.35 15.21 35.37 48.9 20.16 75.24a55.06 55.06 0 0 1-20.16 20.16L155.31 89.6c10.48-6.05 14.07-19.45 8.02-29.93s-19.45-14.07-29.93-8.02-14.07 19.45-8.02 29.93c1.92 3.33 4.69 6.1 8.02 8.02l-16.58 28.73Z" style="fill:#ff0101"/><path d="M234.77 131.67c26.35 15.21 35.37 48.9 20.16 75.24-15.21 26.35-48.9 35.37-75.24 20.16-26.35-15.21-35.37-48.9-20.16-75.24a55.06 55.06 0 0 1 20.16-20.16l16.58 28.73c-10.48 6.05-14.07 19.45-8.02 29.93s19.45 14.07 29.93 8.02 14.07-19.45 8.02-29.93c-1.92-3.33-4.69-6.1-8.02-8.02l16.58-28.73Z" style="fill:#0101ff"/><path d="M137.75 179.37c0 30.42-24.66 55.08-55.08 55.08s-55.08-24.66-55.08-55.08 24.66-55.08 55.08-55.08c9.67 0 19.17 2.55 27.54 7.38L93.63 160.4c-10.48-6.05-23.88-2.46-29.93 8.02s-2.46 23.88 8.02 29.93 23.88 2.46 29.93-8.02a21.95 21.95 0 0 0 2.94-10.96h33.17Z" style="fill:#01ff01"/><path d="M307.88 75.2c7.8-.7 15.7-.7 23.47.42 4.79.84 9.87 2.09 13.46 5.58 3.77 4.2 4.7 10.05 5.52 15.43 1.36 11.17 1.2 22.5 0 33.68-.8 5.4-1.59 11.35-5.16 15.79-3.9 3.96-9.6 5.09-15 5.92-7.8.97-15.72 1.2-23.55.42-5.3-.6-10.84-1.48-15.36-4.5-2.92-1.8-4.49-5.12-5.56-8.3-2.14-6.61-2.41-13.63-2.7-20.52-.04-9.1.14-18.3 1.92-27.24.96-4.18 2.12-8.78 5.66-11.56 4.98-3.61 11.3-4.48 17.26-5.1l.04-.03Zm1.29 12.48c6.62-.53 13.38-.69 19.92.6 2.54.51 5.53 1.8 6 4.63 1.98 8.12 1.52 16.59 1.6 24.9-.24 5.91-.11 12.01-2.09 17.67-1.73 3.72-6.44 4.02-9.99 4.56-7.12.4-14.52.76-21.42-1.35-3.18-.84-4.2-4.2-4.68-7.13-1.32-8.5-.9-17.14-.72-25.7.36-4.8.3-9.78 2.02-14.4 1.98-3 6.07-3.33 9.36-3.83zm69.77 13.4c4.8-3.01 10.63-3.5 16.1-3 5.1.44 10.78 2.17 13.51 6.88 3.26 5.9 3.45 12.88 3.68 19.46-.14 6.77-.27 13.84-3 20.13-1.6 3.82-5.27 6.32-9.19 7.32-6.01 1.48-12.62 1.64-18.42-.76-3.13-1.22-5.3-3.89-7.09-6.62v30.94h-13.31V98.61h12.85l-.36 7.91c1.59-1.94 3-4.08 5.24-5.41v-.02Zm4.32 6.91c3.71-.28 7.63-.36 11.1 1.16 2.2.95 3.36 3.27 3.75 5.52 1.15 5.81 1.01 11.81.6 17.69-.41 3.55-.98 8.15-4.89 9.52-4.52 1.48-9.67 1.57-14.14-.16-4.15-1.8-4.64-6.78-5.04-10.68-.24-5.99-.6-12.14 1.2-17.96.9-3.3 4.32-4.8 7.48-5.1h-.06Zm44.82-6.87c6.51-3.34 14.14-3.46 21.28-3.12 6 .5 13.16 1.49 16.44 7.18 3.7 6.87 3.1 15 3.61 22.49h-36.24c.42 3.89-.08 8.08 1.88 11.64 1.68 2.82 5.23 3.39 8.24 3.56 3.72.02 7.72.33 11.14-1.4 1.96-1.54 1.98-4.2 2.22-6.52h12.72c-.16 4.42-.72 9.38-4.28 12.49-5.4 4.78-12.96 5.28-19.78 5.41-6.02-.18-12.38-.48-17.77-3.45-4.36-2.58-5.76-7.8-6.52-12.6-.97-6.93-1.22-13.98-.39-21 .68-5.49 2.16-12 7.44-14.8v.11Zm7.8 8.43c3.62-2.2 8.1-1.76 12.16-1.7 2.52.27 5.58.42 7.22 2.64 1.67 2.75 1.38 6.12 1.38 9.2-7.8.01-15.58.04-23.38 0 .12-3.43-.15-7.62 2.62-10.2v.07Zm61.8-8.4c4.58-3.18 10.5-3.62 15.9-3 4.59.48 9.45 2.23 12.16 6.19 2.4 3.29 3.07 7.47 3.11 11.4v36.43H516.2l-.02-34.46c-.12-2.51-.02-5.41-1.92-7.34-2.02-2.18-5.17-2.6-7.98-2.58-3.4-.02-7.08.56-9.71 2.92-2.56 2.18-3.6 5.71-3.55 8.97v32.5h-12.58V98.6h12.36l-.42 9.4c1.35-2.54 2.76-5.22 5.24-6.83l.05-.02Zm53.88-23.56c6.94-2.4 14.4-2.66 21.6-2.92 7.03.04 14.39.1 20.96 3 3.34 1.39 5.65 4.44 6.78 7.8 1.84 5.03 1.89 10.47 1.92 15.76-4.84 0-9.68.01-14.52 0-.08-3.72.2-7.9-2.1-11.06-2.4-2.38-5.98-2.38-9-2.74-6.3-.12-12.84-.52-18.87 1.65-2.17.69-3.3 2.86-3.74 4.96-1.24 5.62-1.25 11.41-1.24 17.14.07 7.66-.05 15.42 1.59 22.96.43 2.76 2.97 4.45 5.51 5.06 5.88 1.46 12.02 1.2 18.03.9 3.13-.41 6.95-.62 8.92-3.49 2.1-3.43 1.8-7.65 1.64-11.5h14.66c-.06 6.08-.17 12.37-2.38 18.13-1.2 3.01-3.49 5.57-6.6 6.72-5.98 2.4-12.6 2.55-18.88 3-7.36.12-14.81-.06-22-1.77-4.22-1.1-8.82-3.04-10.78-7.22-2.5-5.54-2.95-11.71-3.6-17.68l-.69-23.67c.38-6.39.96-13.13 4.41-18.7 1.84-3.1 5.05-5.04 8.4-6.18v-.14ZM606 75.36l15.13.07 15.25 46.54 5.28 18.07 5.85-19.54 14.65-45.08 14.96-.09v1.65l-24.24 75.09c-7.5.15-15 .18-22.5-.01z" style="fill:#050505;fill-rule:evenodd"/></svg>