<svg xmlns="http://www.w3.org/2000/svg" viewBox="0 0 447.72 250"><path d="M0 0h447.72v250H0z" style="fill:#fff085"/><path d="M104.96 56.07c7.77-1.3 17.95-2.41 30.9-2.41 15.92 0 27.57 3.7 34.98 10.36 6.85 5.92 10.92 14.99 10.92 26.09s-3.33 20.17-9.62 26.65c-8.51 9.07-22.39 13.69-38.12 13.69-4.81 0-9.25-.19-12.95-1.11v49.97h-16.1V56.07Zm16.1 60.14c3.52.93 7.96 1.3 13.32 1.3 19.43 0 31.27-9.44 31.27-26.65s-11.66-24.43-29.42-24.43c-7.03 0-12.4.56-15.17 1.3v48.49ZM219.51 54.59v124.73h-16.1V54.59zM247.64 56.25c9.81-1.48 21.47-2.59 34.24-2.59 23.13 0 39.6 5.37 50.52 15.54 11.1 10.18 17.58 24.61 17.58 44.78s-6.29 37.01-17.95 48.49c-11.66 11.66-30.9 17.95-55.15 17.95-11.47 0-21.1-.56-29.24-1.48zm16.1 110.3c4.07.74 9.99.93 16.29.93 34.42 0 53.11-19.25 53.11-52.93.19-29.42-16.47-48.12-50.52-48.12-8.33 0-14.62.74-18.88 1.67z"/></svg>