<svg xmlns="http://www.w3.org/2000/svg" viewBox="0 0 781.08 250"><defs><linearGradient id="a" x1="-2152.8" x2="-2056.76" y1="9661.43" y2="9578.01" gradientTransform="matrix(1 0 0 -1 2194 9705.87)" gradientUnits="userSpaceOnUse"><stop offset="0" stop-color="#5a9fd4"/><stop offset="1" stop-color="#306998"/></linearGradient><linearGradient id="b" x1="-2019.45" x2="-2053.74" y1="9527.31" y2="9576.3" gradientTransform="matrix(1 0 0 -1 2194 9705.87)" gradientUnits="userSpaceOnUse"><stop offset="0" stop-color="#ffd43b"/><stop offset="1" stop-color="#ffe873"/></linearGradient></defs><path d="M0 0h781.08v250H0z" style="fill:#fff"/><path d="M325.89 126.42c0-22.8-6.5-34.51-19.51-35.15-5.17-.25-10.33.6-15.14 2.49-3.92 1.36-6.56 2.8-7.95 4.2v54.43c8.32 5.22 15.71 7.69 22.15 7.26 13.63-.9 20.45-11.97 20.45-33.23m16.04.9c0 11.59-2.71 21.2-8.14 28.86-6.09 8.66-14.53 13.12-25.33 13.36-8.14.26-16.52-2.29-25.14-7.63v49.47l-13.95-4.98V96.58c2.29-2.8 5.24-5.22 8.81-7.26 8.3-4.84 18.39-7.33 30.27-7.45l.2.2c10.85-.14 19.22 4.32 25.09 13.36 5.48 8.29 8.23 18.91 8.23 31.9h-.04Zm85.27 32.5c0 15.54-1.56 26.3-4.67 32.28-3.12 5.98-9.08 10.76-17.87 14.32-7.13 2.8-14.84 4.33-23.07 4.6l-2.26-8.79c8.41-1.14 14.34-2.29 17.77-3.44 6.76-2.29 11.4-5.8 13.95-10.5 2.04-3.83 3.05-11.14 3.05-21.96v-3.63a71.9 71.9 0 0 1-30 6.49c-6.87 0-12.94-2.15-18.15-6.49-5.86-4.72-8.79-10.7-8.79-17.96V86.69l13.95-4.78v58.44c0 6.24 2.01 11.05 6.04 14.47s9.25 4.99 15.65 4.87 13.25-2.61 20.53-7.45V84h13.95v75.81h-.09Zm54.46 8.99-4.6.2c-7.89 0-14.04-1.88-18.44-5.65-4.4-3.78-6.58-8.97-6.58-15.62V92.8h-9.56v-8.77h9.56V60.72l13.93-4.96v28.27h15.68v8.77h-15.68v54.57c0 5.24 1.36 8.95 4.21 11.11 2.41 1.79 6.24 2.8 11.47 3.07v7.26zm84.47-1.15h-13.95v-53.85c0-5.48-1.28-10.19-3.83-14.13-2.94-4.46-7.04-6.68-12.29-6.68-6.4 0-14.4 3.37-23.99 10.12v64.55h-13.95V38.94l13.96-4.4v58.63c8.91-6.49 18.65-9.74 29.23-9.74 7.39 0 13.37 2.49 17.96 7.45s6.88 11.14 6.88 18.53v58.25Zm74.16-43.44q0-13.14-4.98-21.72c-3.93-6.97-10.06-10.66-18.33-11.04-15.3.89-22.93 11.85-22.93 32.85 0 9.63 1.58 17.68 4.79 24.13 4.09 8.23 10.22 12.29 18.41 12.15 15.36-.12 23.04-12.24 23.04-36.37m15.28.09c0 12.47-3.19 22.85-9.56 31.14-7.01 9.28-16.73 13.93-29.04 13.93s-21.78-4.66-28.67-13.93q-9.36-12.435-9.36-31.14c0-11.72 3.37-21.58 10.12-29.61 7.13-8.52 16.5-12.79 28.04-12.79s21.02 4.27 28.29 12.79c6.75 8.03 10.12 17.89 10.12 29.61h.05Zm79.98 43.35H721.6v-56.91c0-6.24-1.88-11.11-5.63-14.62s-8.76-5.19-15.01-5.05c-6.63.12-12.94 2.29-18.91 6.49v70.1H668.1V95.85c8.03-5.85 15.38-9.66 22.16-11.44 6.36-1.66 11.99-2.49 16.83-2.49 3.31 0 6.42.32 9.36.96 5.48 1.27 9.94 3.62 13.37 7.07 3.83 3.82 5.74 8.39 5.74 13.75v63.97h-.01Z" style="fill:#646464"/><path d="M131.54 39.45c-7.18.03-14.03.65-20.06 1.72-17.77 3.14-21 9.71-21 21.83v16h41.99v5.34H74.72c-12.2 0-22.89 7.34-26.23 21.29-3.85 15.99-4.07 25.97 0 42.67 2.99 12.43 10.11 21.29 22.32 21.29h14.44V150.4c0-13.86 11.99-26.08 26.23-26.08h41.94c11.67 0 21-9.61 21-21.34V63.03c0-11.38-9.6-19.93-21-21.83-7.21-1.2-14.7-1.75-21.88-1.72v-.04Zm-22.71 12.87c4.34 0 7.88 3.6 7.88 8.03s-3.54 7.98-7.88 7.98-7.88-3.57-7.88-7.98 3.53-8.03 7.88-8.03" style="fill:url(#a)"/><path d="M179.65 84.33v18.65c0 14.46-12.21 26.62-26.23 26.62h-41.94c-11.49 0-21 9.83-21 21.34v39.98c0 11.38 9.9 18.07 21 21.34 13.3 3.91 26.04 4.61 41.94 0 10.57-3.06 21-9.23 21-21.34v-16h-41.95v-5.34h62.94c12.2 0 16.75-8.51 21-21.29 4.39-13.15 4.2-25.8 0-42.67-3.02-12.15-8.77-21.29-21-21.29zm-23.59 101.25c4.35 0 7.88 3.57 7.88 7.98s-3.53 8.03-7.88 8.03-7.88-3.6-7.88-8.03 3.54-7.98 7.88-7.98" style="fill:url(#b)"/></svg>