<svg xmlns="http://www.w3.org/2000/svg" viewBox="0 0 1468.26 250"><path d="M0 0h1468.26v250H0z" style="fill:#087ea4"/><path d="M295.09 43c9.71-1.99 23.62-3.09 36.86-3.09 20.53 0 33.77 3.75 43.04 12.14 7.5 6.62 11.7 16.78 11.7 28.25 0 19.65-12.36 32.67-28.03 37.97v.66c11.48 3.97 18.32 14.57 21.85 30.02 4.86 20.75 8.39 35.1 11.48 40.84h-19.87c-2.43-4.19-5.74-17-9.93-35.54-4.41-20.53-12.36-28.25-29.8-28.92h-18.1v64.45h-19.2zm19.2 67.77h19.65c20.53 0 33.55-11.26 33.55-28.25 0-19.2-13.91-27.59-34.21-27.81-9.27 0-15.89.88-18.98 1.77v54.3ZM424.88 139.9c.44 26.27 17.22 37.08 36.64 37.08 13.91 0 22.29-2.43 29.58-5.52l3.31 13.91c-6.84 3.09-18.54 6.62-35.54 6.62-32.89 0-52.53-21.63-52.53-53.86s18.98-57.61 50.11-57.61c34.88 0 44.15 30.68 44.15 50.33 0 3.97-.44 7.06-.66 9.05h-75.05Zm56.95-13.9c.22-12.36-5.08-31.56-26.93-31.56-19.65 0-28.25 18.1-29.8 31.56zM583.81 189.79l-1.55-13.46h-.66c-5.96 8.39-17.44 15.89-32.67 15.89-21.63 0-32.67-15.23-32.67-30.68 0-25.83 22.96-39.95 64.23-39.73v-2.21c0-8.83-2.43-24.72-24.28-24.72-9.93 0-20.31 3.09-27.81 7.95l-4.42-12.8c8.83-5.74 21.63-9.49 35.1-9.49 32.67 0 40.62 22.29 40.62 43.71v39.95c0 9.27.44 18.32 1.77 25.6h-17.66Zm-2.87-54.52c-21.19-.44-45.25 3.31-45.25 24.06 0 12.58 8.39 18.54 18.32 18.54 13.91 0 22.74-8.83 25.83-17.88.66-1.99 1.1-4.19 1.1-6.18zM707.2 185.81c-5.08 2.65-16.33 6.18-30.68 6.18-32.23 0-53.2-21.85-53.2-54.52s22.51-56.73 57.39-56.73c11.48 0 21.63 2.87 26.93 5.52l-4.41 15.01c-4.64-2.65-11.92-5.08-22.52-5.08-24.5 0-37.75 18.1-37.75 40.39 0 24.72 15.89 39.95 37.08 39.95 11.04 0 18.32-2.87 23.84-5.3l3.31 14.57ZM756.2 52.27v30.68h27.81v14.79H756.2v57.61c0 13.24 3.75 20.75 14.57 20.75 5.08 0 8.83-.66 11.26-1.32l.88 14.57c-3.75 1.54-9.71 2.65-17.22 2.65-9.05 0-16.33-2.87-20.97-8.17-5.52-5.74-7.5-15.23-7.5-27.81V97.75h-16.55V82.96h16.55v-25.6l18.98-5.08ZM853.32 189.79V41.01h20.97l47.68 75.27c11.04 17.44 19.65 33.11 26.71 48.34l.44-.22c-1.77-19.87-2.21-37.97-2.21-61.14V41.01h18.1v148.77h-19.42l-47.24-75.49c-10.38-16.56-20.31-33.55-27.81-49.67l-.66.22c1.1 18.76 1.54 36.64 1.54 61.36v63.57h-18.1ZM1057.06 189.79l-1.55-13.46h-.66c-5.96 8.39-17.44 15.89-32.67 15.89-21.63 0-32.67-15.23-32.67-30.68 0-25.83 22.96-39.95 64.23-39.73v-2.21c0-8.83-2.43-24.72-24.28-24.72-9.93 0-20.31 3.09-27.81 7.95l-4.42-12.8c8.83-5.74 21.63-9.49 35.1-9.49 32.67 0 40.62 22.29 40.62 43.71v39.95c0 9.27.44 18.32 1.77 25.6h-17.66Zm-2.87-54.52c-21.19-.44-45.25 3.31-45.25 24.06 0 12.58 8.39 18.54 18.32 18.54 13.91 0 22.74-8.83 25.83-17.88.66-1.99 1.1-4.19 1.1-6.18zM1126.81 52.27v30.68h27.81v14.79h-27.81v57.61c0 13.24 3.75 20.75 14.57 20.75 5.08 0 8.83-.66 11.26-1.32l.88 14.57c-3.75 1.54-9.71 2.65-17.22 2.65-9.05 0-16.33-2.87-20.97-8.17-5.52-5.74-7.5-15.23-7.5-27.81V97.75h-16.55V82.96h16.55v-25.6l18.98-5.08ZM1198.11 52.93c.22 6.62-4.63 11.92-12.36 11.92-6.84 0-11.7-5.3-11.7-11.92s5.08-12.14 12.14-12.14 11.92 5.3 11.92 12.14m-21.63 136.86V82.96h19.42v106.83zM1235.63 82.95l20.97 60.04c3.53 9.71 6.4 18.54 8.61 27.37h.66c2.43-8.83 5.52-17.66 9.05-27.37l20.75-60.04h20.31l-41.94 106.83h-18.54l-40.62-106.83zM1342.91 139.9c.44 26.27 17.22 37.08 36.64 37.08 13.91 0 22.29-2.43 29.58-5.52l3.31 13.91c-6.84 3.09-18.54 6.62-35.54 6.62-32.89 0-52.54-21.63-52.54-53.86s18.98-57.61 50.11-57.61c34.88 0 44.15 30.68 44.15 50.33 0 3.97-.44 7.06-.66 9.05zm56.95-13.9c.22-12.36-5.08-31.56-26.93-31.56-19.65 0-28.25 18.1-29.8 31.56z" style="fill:#fff"/><circle cx="141.65" cy="125" r="19.99" style="fill:#fff"/><ellipse cx="141.65" cy="125" rx="99.95" ry="44.98" style="fill:none;stroke:#fff;stroke-width:10px"/><ellipse cx="141.65" cy="125" rx="44.98" ry="99.95" style="fill:none;stroke:#fff;stroke-miterlimit:4;stroke-width:10px" transform="rotate(-30 141.648 124.994)"/><ellipse cx="141.65" cy="125" rx="99.95" ry="44.98" style="fill:none;stroke:#fff;stroke-miterlimit:4;stroke-width:10px" transform="rotate(-60 141.647 125)"/></svg>