<svg xmlns="http://www.w3.org/2000/svg" viewBox="0 0 1300.45 250"><path d="M0 0h1300.45v250H0z" style="fill:#fff"/><path d="M211.2 39.97v110.82l-51.18-.4V91.15h-59.03l-.2-51.18zM92.32 99.61v50.58l-.6.6H41.14V99.21z"/><path d="M151.56 99.61v50.78l-50.8.23-.2-51.03zM100.38 158.85h51.18v51.18h-51.18zM257.57 72.43c6.23-1.27 15.14-1.98 23.63-1.98 13.16 0 21.65 2.41 27.59 7.78 4.81 4.24 7.5 10.75 7.5 18.11 0 12.59-7.92 20.94-17.97 24.34v.42c7.36 2.55 11.74 9.34 14.01 19.24 3.11 13.3 5.38 22.5 7.36 26.18h-12.73c-1.56-2.69-3.68-10.9-6.37-22.78-2.83-13.16-7.92-18.11-19.1-18.54h-11.6v41.32h-12.31V72.43Zm12.31 43.44h12.59c13.16 0 21.51-7.22 21.51-18.11 0-12.31-8.91-17.69-21.93-17.83-5.94 0-10.19.57-12.17 1.13zM340.76 134.55c.28 16.84 11.04 23.77 23.49 23.77 8.92 0 14.29-1.56 18.96-3.54l2.12 8.91c-4.39 1.98-11.89 4.25-22.78 4.25-21.08 0-33.68-13.87-33.68-34.52s12.17-36.93 32.12-36.93c22.36 0 28.3 19.67 28.3 32.26 0 2.55-.28 4.53-.42 5.8zm36.51-8.91c.14-7.92-3.25-20.23-17.26-20.23-12.59 0-18.11 11.6-19.1 20.23zM442.63 166.53l-.99-8.63h-.42c-3.82 5.38-11.18 10.19-20.94 10.19-13.87 0-20.94-9.76-20.94-19.67 0-16.55 14.72-25.61 41.17-25.47v-1.41c0-5.66-1.56-15.85-15.56-15.85-6.37 0-13.02 1.98-17.83 5.09l-2.83-8.21c5.66-3.68 13.87-6.08 22.5-6.08 20.94 0 26.04 14.29 26.04 28.02v25.61c0 5.94.28 11.74 1.13 16.41h-11.32Zm-1.84-34.95c-13.58-.28-29.01 2.12-29.01 15.42 0 8.07 5.38 11.89 11.74 11.89 8.92 0 14.57-5.66 16.56-11.46.42-1.27.71-2.69.71-3.96zM521.73 163.98c-3.25 1.7-10.47 3.96-19.67 3.96-20.66 0-34.1-14.01-34.1-34.95s14.43-36.36 36.79-36.36c7.36 0 13.87 1.84 17.26 3.54l-2.83 9.62c-2.97-1.7-7.64-3.25-14.43-3.25-15.71 0-24.2 11.6-24.2 25.89 0 15.85 10.19 25.61 23.77 25.61 7.07 0 11.74-1.84 15.28-3.4l2.12 9.34ZM553.13 78.38v19.67h17.83v9.48h-17.83v36.93c0 8.49 2.41 13.3 9.34 13.3 3.25 0 5.66-.42 7.22-.85l.57 9.34c-2.41.99-6.23 1.7-11.04 1.7-5.8 0-10.47-1.84-13.44-5.24-3.54-3.68-4.81-9.76-4.81-17.83v-37.35h-10.61v-9.48h10.61V81.64l12.17-3.25ZM627.7 81.63h-29.01V71.16h70.61v10.47h-29.15v84.9H627.7zM678.5 66.07h12.45v42.73h.28c1.98-3.54 5.09-6.65 8.91-8.77 3.68-2.12 8.07-3.54 12.73-3.54 9.2 0 23.91 5.66 23.91 29.29v40.75h-12.45v-39.34c0-11.04-4.1-20.38-15.85-20.38-8.07 0-14.43 5.66-16.7 12.45-.71 1.7-.85 3.54-.85 5.94v41.32h-12.45V66.06ZM757.02 119.41c0-8.07-.14-15-.57-21.37h10.9l.42 13.44h.57c3.11-9.2 10.61-15 18.96-15 1.42 0 2.41.14 3.54.42v11.74c-1.27-.28-2.55-.42-4.25-.42-8.77 0-15 6.65-16.7 15.99-.28 1.7-.57 3.68-.57 5.8v36.51h-12.31V119.4ZM808.81 134.55c.28 16.84 11.04 23.77 23.49 23.77 8.91 0 14.29-1.56 18.96-3.54l2.12 8.91c-4.39 1.98-11.89 4.25-22.78 4.25-21.08 0-33.68-13.87-33.68-34.52s12.17-36.93 32.12-36.93c22.36 0 28.3 19.67 28.3 32.26 0 2.55-.28 4.53-.42 5.8zm36.5-8.91c.14-7.92-3.25-20.23-17.26-20.23-12.59 0-18.11 11.6-19.1 20.23zM879.69 134.55c.28 16.84 11.04 23.77 23.49 23.77 8.92 0 14.29-1.56 18.96-3.54l2.12 8.91c-4.39 1.98-11.89 4.25-22.78 4.25-21.08 0-33.68-13.87-33.68-34.52s12.17-36.93 32.12-36.93c22.36 0 28.3 19.67 28.3 32.26 0 2.55-.28 4.53-.42 5.8zm36.51-8.91c.14-7.92-3.25-20.23-17.26-20.23-12.59 0-18.11 11.6-19.1 20.23zM974.07 71.16h51.36v10.33h-39.05v31.69h36.08v10.19h-36.08v43.16h-12.31zM1052.74 78.8c.14 4.24-2.97 7.64-7.92 7.64-4.39 0-7.5-3.4-7.5-7.64s3.25-7.78 7.78-7.78 7.64 3.4 7.64 7.78m-13.87 87.73V98.05h12.45v68.48zM1071.41 166.53c.28-4.67.57-11.6.57-17.69V66.07h12.31v43.01h.28c4.39-7.64 12.31-12.59 23.35-12.59 16.98 0 29.01 14.15 28.87 34.95 0 24.48-15.42 36.65-30.7 36.65-9.91 0-17.83-3.82-22.92-12.88h-.42l-.57 11.32h-10.75Zm12.88-27.45c0 1.56.28 3.11.57 4.53 2.41 8.63 9.62 14.57 18.68 14.57 13.02 0 20.8-10.61 20.8-26.32 0-13.73-7.08-25.47-20.38-25.47-8.49 0-16.41 5.8-18.96 15.28-.28 1.42-.71 3.11-.71 5.09v12.31ZM1159.42 134.55c.28 16.84 11.04 23.77 23.49 23.77 8.91 0 14.29-1.56 18.96-3.54l2.12 8.91c-4.39 1.98-11.89 4.25-22.78 4.25-21.08 0-33.68-13.87-33.68-34.52s12.17-36.93 32.12-36.93c22.36 0 28.3 19.67 28.3 32.26 0 2.55-.28 4.53-.42 5.8zm36.5-8.91c.14-7.92-3.25-20.23-17.26-20.23-12.59 0-18.11 11.6-19.1 20.23zM1223.37 119.41c0-8.07-.14-15-.57-21.37h10.9l.42 13.44h.57c3.11-9.2 10.61-15 18.96-15 1.42 0 2.41.14 3.54.42v11.74c-1.27-.28-2.55-.42-4.25-.42-8.77 0-15 6.65-16.7 15.99-.28 1.7-.57 3.68-.57 5.8v36.51h-12.31V119.4Z"/></svg>