<svg xmlns="http://www.w3.org/2000/svg" viewBox="0 0 836.95 250"><path d="M0 0h836.95v250H0z" style="fill:#222"/><path d="M297.84 43c9.71-1.99 23.62-3.09 36.86-3.09 20.53 0 33.77 3.75 43.04 12.14 7.5 6.62 11.7 16.78 11.7 28.25 0 19.65-12.36 32.67-28.03 37.97v.66c11.48 3.97 18.32 14.57 21.85 30.02 4.86 20.75 8.39 35.1 11.48 40.84h-19.87c-2.43-4.19-5.74-17-9.93-35.54-4.42-20.53-12.36-28.25-29.8-28.92h-18.1v64.45h-19.2zm19.21 67.77h19.65c20.53 0 33.55-11.26 33.55-28.25 0-19.2-13.91-27.59-34.21-27.81-9.27 0-15.89.88-18.98 1.77v54.3ZM427.63 139.9c.44 26.27 17.22 37.08 36.64 37.08 13.91 0 22.29-2.43 29.58-5.52l3.31 13.91c-6.84 3.09-18.54 6.62-35.54 6.62-32.89 0-52.54-21.63-52.54-53.86s18.98-57.61 50.11-57.61c34.88 0 44.15 30.68 44.15 50.33 0 3.97-.44 7.06-.66 9.05zm56.95-13.9c.22-12.36-5.08-31.56-26.93-31.56-19.64 0-28.25 18.1-29.8 31.56zM586.56 189.79l-1.55-13.46h-.66c-5.96 8.39-17.44 15.89-32.67 15.89-21.63 0-32.67-15.23-32.67-30.68 0-25.83 22.96-39.95 64.23-39.73v-2.21c0-8.83-2.43-24.72-24.28-24.72-9.93 0-20.31 3.09-27.81 7.95l-4.42-12.8c8.83-5.74 21.63-9.49 35.1-9.49 32.67 0 40.62 22.29 40.62 43.71v39.95c0 9.27.44 18.32 1.77 25.6h-17.66Zm-2.87-54.52c-21.19-.44-45.25 3.31-45.25 24.06 0 12.58 8.39 18.54 18.32 18.54 13.91 0 22.74-8.83 25.83-17.88.66-1.99 1.1-4.19 1.1-6.18zM709.95 185.81c-5.08 2.65-16.33 6.18-30.68 6.18-32.23 0-53.2-21.85-53.2-54.52s22.51-56.73 57.39-56.73c11.48 0 21.63 2.87 26.93 5.52l-4.41 15.01c-4.64-2.65-11.92-5.08-22.52-5.08-24.5 0-37.75 18.1-37.75 40.39 0 24.72 15.89 39.95 37.08 39.95 11.04 0 18.32-2.87 23.84-5.3l3.31 14.57ZM758.95 52.27v30.68h27.81v14.79h-27.81v57.61c0 13.24 3.75 20.75 14.57 20.75 5.08 0 8.83-.66 11.26-1.32l.88 14.57c-3.75 1.54-9.71 2.65-17.22 2.65-9.05 0-16.33-2.87-20.97-8.17-5.52-5.74-7.5-15.23-7.5-27.81V97.75h-16.55V82.96h16.55v-25.6l18.98-5.08Z" style="fill:#087ea4"/><circle cx="144.4" cy="125" r="19.99" style="fill:#087ea4"/><ellipse cx="144.4" cy="125" rx="99.95" ry="44.98" style="fill:none;stroke:#087ea4;stroke-width:10px"/><ellipse cx="144.4" cy="125" rx="44.98" ry="99.95" style="fill:none;stroke:#087ea4;stroke-miterlimit:4;stroke-width:10px" transform="rotate(-30 144.408 124.994)"/><ellipse cx="144.4" cy="125" rx="99.95" ry="44.98" style="fill:none;stroke:#087ea4;stroke-miterlimit:4;stroke-width:10px" transform="rotate(-60 144.407 125)"/></svg>