<svg xmlns="http://www.w3.org/2000/svg" xml:space="preserve" width="600.96" height="250">
  <path fill="#fff" d="M0 0h600.96v250H0z"/>
  <g transform="translate(-727.5 -270.6)">
    <radialGradient id="a" cx="3719.053" cy="172.593" r="31.998" gradientTransform="matrix(-2.0641 -4.028 -6.8395 3.5052 10071.405 14807.76)" gradientUnits="userSpaceOnUse">
      <stop offset="0" stop-color="#656f71"/>
      <stop offset="1" stop-color="#d3d4cf"/>
    </radialGradient>
    <path fill="url(#a)" d="M1012.82 508.04c-51.48-1.76-100.45-13.41-138.54-32.94-3.59-1.84-11.41-6.19-11.41-6.35 0-.05 1.24.53 2.76 1.31 18.64 9.52 42.06 17.65 65.71 22.81 37.51 8.19 78.59 10.37 118.86 6.3 38-3.84 73.49-13.17 103.8-27.28 27.25-12.68 49.06-28.91 63.59-47.27 22.31-28.24 25.3-60.98 8.22-90.01-11.06-18.82-29.52-35.39-54.86-49.26-2.43-1.33-4.33-2.41-4.23-2.41.33 0 11.05 5.17 14.41 6.95 16.37 8.67 29.38 17.9 40.74 28.9 14.27 13.81 23.22 28.04 27.61 43.83 4.05 14.61 3.3 30.8-2.11 45.17-7.27 19.33-22.15 37.11-43.91 52.5-35.35 25-85.94 41.57-142.06 46.49-15.22 1.33-33.1 1.8-48.58 1.26z"/>
    <path fill="#173556" d="M1141.58 441.84h-.27c-.13-.05-.31-.08-.55-.09-.24-.02-.5-.03-.79-.03-.35 0-.71.05-1.09.14-.38.1-.75.21-1.11.34v6.76h-3.31v-10.09h3.31v1.45c.15-.13.36-.3.63-.5s.51-.36.73-.48c.24-.14.52-.26.84-.35.32-.1.62-.15.9-.15.11 0 .23 0 .36.01.13.01.25.01.36.03l-.01 2.96zm-12.04 7.39c-2.01 0-3.54-.46-4.61-1.37-1.07-.91-1.6-2.21-1.6-3.89 0-1.65.5-2.96 1.5-3.95 1-.98 2.39-1.47 4.18-1.47 1.63 0 2.85.42 3.67 1.25.82.83 1.23 2.02 1.23 3.58v1.13h-7.26c.03.47.14.86.31 1.17.18.31.41.56.7.75.28.19.62.32.99.4a5.998 5.998 0 0 0 2.38 0c.37-.08.71-.19 1.02-.32.27-.11.52-.24.75-.37.23-.13.42-.25.56-.35h.35v2.6c-.27.1-.52.2-.74.28-.22.09-.53.18-.92.27-.36.09-.73.16-1.11.21-.39.05-.86.08-1.4.08zm1.09-6.62c-.02-.67-.18-1.17-.49-1.52-.31-.35-.77-.52-1.4-.52-.64 0-1.15.18-1.51.55-.36.37-.56.86-.6 1.49h4zm-6.62-3.74-5.36 13.79h-3.56l1.61-3.95-3.9-9.85h3.48l2.23 6.33 2.09-6.33 3.41.01zm-14.49 7.45v-2.1c-.56.05-1.02.1-1.36.14-.35.04-.69.11-1.02.23-.29.1-.52.24-.68.44-.16.2-.24.45-.24.78 0 .47.13.8.4.97.27.18.66.26 1.19.26.29 0 .59-.06.89-.19.3-.12.57-.3.82-.53zm0 1.57c-.23.18-.43.34-.61.49-.18.14-.42.29-.72.43s-.58.24-.87.31c-.28.08-.67.11-1.18.11-.94 0-1.72-.3-2.34-.9-.62-.6-.93-1.35-.93-2.26 0-.75.16-1.35.47-1.82.32-.46.77-.83 1.36-1.1.6-.28 1.31-.47 2.15-.57.83-.11 1.73-.19 2.69-.25v-.05c0-.56-.22-.94-.65-1.15-.43-.21-1.08-.32-1.94-.32-.39 0-.85.07-1.37.2-.52.13-1.03.31-1.53.52h-.28v-2.44c.33-.09.86-.2 1.59-.32.73-.12 1.47-.18 2.21-.18 1.83 0 3.16.29 4 .87.84.58 1.25 1.46 1.25 2.65v6.86h-3.29l-.01-1.08zm-6.19 1.07h-9.4v-13.38h3.54v10.83h5.87l-.01 2.55zm-18.69-2.64v-2.1c-.56.05-1.02.1-1.36.14-.35.04-.69.11-1.02.23-.29.1-.52.24-.68.44-.16.2-.24.45-.24.78 0 .47.13.8.4.97.27.18.66.26 1.19.26.29 0 .59-.06.89-.19.3-.12.57-.3.82-.53zm0 1.57c-.23.18-.43.34-.61.49-.18.14-.42.29-.72.43s-.58.24-.87.31c-.28.08-.67.11-1.18.11-.94 0-1.72-.3-2.34-.9-.62-.6-.93-1.35-.93-2.26 0-.75.16-1.35.47-1.82.32-.46.77-.83 1.36-1.1.6-.28 1.31-.47 2.15-.57.83-.11 1.73-.19 2.69-.25v-.05c0-.56-.22-.94-.65-1.15-.43-.21-1.08-.32-1.94-.32-.39 0-.85.07-1.37.2-.52.13-1.03.31-1.53.52h-.28v-2.44c.33-.09.86-.2 1.59-.32.73-.12 1.47-.18 2.21-.18 1.83 0 3.16.29 4 .87.84.58 1.25 1.46 1.25 2.65v6.86h-3.29l-.01-1.08zm-7.23 1.07h-3.31v-10.09h3.31v10.09zm.09-11.53h-3.5v-2.45h3.5v2.45zm-4.77 11.53h-3.31v-1.05c-.21.17-.46.35-.73.54-.27.19-.52.34-.72.43-.26.12-.53.21-.79.27-.26.06-.57.09-.93.09-1.21 0-2.17-.48-2.88-1.43s-1.06-2.23-1.06-3.82c0-.88.12-1.64.36-2.29.24-.65.57-1.21.99-1.69.39-.44.85-.78 1.4-1.04.55-.25 1.13-.38 1.74-.38.56 0 1.01.05 1.37.17.36.11.77.28 1.24.52v-4.3h3.31l.01 13.98zm-3.31-2.79v-4.95c-.16-.08-.38-.14-.64-.19a3.75 3.75 0 0 0-.68-.08c-.8 0-1.39.26-1.79.79-.4.53-.6 1.26-.6 2.21 0 .99.16 1.71.48 2.16.32.44.83.67 1.55.67.29 0 .58-.05.88-.16.28-.12.55-.26.8-.45zm-11.24 3.06c-2.01 0-3.54-.46-4.61-1.37-1.07-.91-1.6-2.21-1.6-3.89 0-1.65.5-2.96 1.49-3.95 1-.98 2.39-1.47 4.18-1.47 1.63 0 2.85.42 3.67 1.25.82.83 1.23 2.02 1.23 3.58v1.13h-7.26c.03.47.14.86.31 1.17.18.31.41.56.7.75.28.19.61.32.99.4a5.998 5.998 0 0 0 2.38 0c.37-.08.71-.19 1.02-.32.27-.11.52-.24.75-.37.23-.13.42-.25.56-.35h.35v2.6c-.27.1-.52.2-.74.28-.22.09-.53.18-.92.27-.36.09-.73.16-1.11.21-.38.05-.85.08-1.39.08zm1.09-6.62c-.02-.67-.18-1.17-.49-1.52-.31-.35-.77-.52-1.4-.52-.64 0-1.15.18-1.51.55-.36.37-.56.86-.6 1.49h4zm-11.16 6.35v-5.04c0-.5-.01-.92-.03-1.26-.02-.34-.08-.62-.17-.84a.882.882 0 0 0-.44-.47c-.2-.1-.48-.15-.84-.15-.25 0-.5.05-.75.16s-.51.25-.8.44v7.15h-3.33v-5.04c0-.49-.01-.91-.03-1.25-.02-.34-.08-.62-.17-.84a.882.882 0 0 0-.44-.47c-.2-.1-.47-.15-.83-.15-.27 0-.54.06-.79.18-.26.12-.51.26-.76.42v7.15h-3.31v-10.09h3.31v1.11c.54-.44 1.05-.78 1.53-1.02.48-.25 1.02-.37 1.62-.37.65 0 1.22.15 1.71.44.49.29.87.73 1.13 1.31.64-.56 1.24-1 1.8-1.3.56-.3 1.14-.45 1.72-.45.49 0 .93.08 1.32.22.39.15.72.37.99.67.3.32.52.71.67 1.15.15.45.22 1.03.22 1.75v6.57l-3.33.02zm-15.52.2c-1.35 0-2.33-.26-2.95-.79-.62-.53-.92-1.39-.92-2.59v-4.72h-1.27v-2.19h1.27v-2.88h3.31v2.88h3.19v2.19h-3.19v3.58c0 .35 0 .66.01.93.01.26.05.5.15.71.09.21.24.38.47.5.22.12.55.18.98.18.18 0 .41-.04.69-.11.29-.08.49-.14.6-.2h.28v2.22c-.36.09-.74.16-1.14.21-.4.06-.9.08-1.48.08zm-7.9.07c-.88 0-1.68-.11-2.41-.31a5.26 5.26 0 0 1-1.9-.97c-.53-.44-.94-.99-1.24-1.65s-.44-1.44-.44-2.34c0-.96.16-1.79.48-2.46.32-.68.76-1.23 1.31-1.67.53-.42 1.15-.73 1.87-.93.72-.2 1.46-.3 2.24-.3.59 0 1.17.07 1.76.19.59.13 1.18.33 1.77.62v2.7h-.43c-.13-.12-.3-.25-.49-.4a4.273 4.273 0 0 0-1.44-.72c-.3-.09-.64-.13-1.01-.13-.85 0-1.5.28-1.96.84-.46.56-.69 1.31-.69 2.26 0 1.01.25 1.77.74 2.26.5.5 1.15.75 1.97.75.42 0 .78-.05 1.1-.13.32-.09.59-.2.81-.32.22-.13.41-.26.57-.39.16-.13.29-.26.41-.36h.43v2.7c-.19.08-.41.17-.66.27-.25.1-.5.19-.76.25-.32.08-.62.15-.9.19-.3.03-.67.05-1.13.05zm-10.11 0c-2.01 0-3.54-.46-4.61-1.37-1.07-.91-1.6-2.21-1.6-3.89 0-1.65.5-2.96 1.49-3.95 1-.98 2.39-1.47 4.18-1.47 1.63 0 2.85.42 3.67 1.25.82.83 1.23 2.02 1.23 3.58v1.13h-7.26c.03.47.14.86.31 1.17.18.31.41.56.7.75.28.19.62.32.99.4a5.998 5.998 0 0 0 2.38 0c.37-.08.71-.19 1.02-.32.27-.11.52-.24.75-.37.23-.13.42-.25.56-.35h.35v2.6c-.27.1-.52.2-.74.28-.22.09-.53.18-.92.27-.36.09-.73.16-1.11.21-.38.06-.84.08-1.39.08zm1.1-6.61c-.01-.67-.18-1.17-.49-1.52-.31-.35-.77-.52-1.41-.52-.64 0-1.15.18-1.51.55-.36.37-.56.86-.6 1.49h4.01zm-6.65-.77h-.27c-.13-.05-.31-.08-.55-.09-.24-.02-.5-.03-.79-.03-.35 0-.71.05-1.09.14-.38.1-.75.21-1.11.34v6.76h-3.31v-10.09h3.31v1.45c.15-.13.36-.3.63-.5s.51-.36.73-.48c.24-.14.52-.26.84-.35.32-.1.62-.15.9-.15.11 0 .23 0 .36.01.13.01.25.01.36.03l-.01 2.96zm-8.51 7.11h-3.31v-10.09h3.31v10.09zm.09-11.52h-3.5v-2.45h3.5v2.45zm-4.14 4.85c0 1.25-.29 2.36-.86 3.35-.57.99-1.3 1.74-2.18 2.27-.73.45-1.53.74-2.39.87-.86.13-1.78.19-2.75.19h-4.41v-13.38h4.37c.99 0 1.92.06 2.78.18.86.12 1.67.41 2.43.87.93.56 1.66 1.32 2.19 2.28.56.95.82 2.08.82 3.37zm-3.63-.03c0-.88-.16-1.63-.48-2.26-.32-.63-.81-1.12-1.47-1.47-.48-.25-.98-.39-1.51-.41-.53-.02-1.16-.04-1.89-.04h-.07v8.38h.07c.79 0 1.46-.01 2.01-.04a3.423 3.423 0 0 0 2.88-1.92c.31-.61.46-1.36.46-2.24zm-18.55 6.98c-2.01 0-3.54-.46-4.61-1.37-1.07-.91-1.6-2.21-1.6-3.89 0-1.65.5-2.96 1.49-3.95 1-.98 2.39-1.47 4.18-1.47 1.63 0 2.85.42 3.67 1.25.82.83 1.23 2.02 1.23 3.58v1.13h-7.26c.03.47.14.86.31 1.17.18.31.41.56.7.75.28.19.62.32.99.4a5.998 5.998 0 0 0 2.38 0c.37-.08.71-.19 1.02-.32.27-.11.52-.24.75-.37.23-.13.42-.25.56-.35h.35v2.6c-.27.1-.52.2-.74.28-.22.09-.53.18-.92.27-.36.09-.73.16-1.11.21-.38.05-.85.08-1.39.08zm1.09-6.62c-.01-.67-.18-1.17-.49-1.52-.31-.35-.77-.52-1.4-.52-.64 0-1.15.18-1.51.55-.36.37-.56.86-.6 1.49h4zm-7.91 6.35h-3.31v-13.98h3.31v13.98zm-3.92-5.19c0 1.61-.43 2.91-1.29 3.9-.86.99-1.92 1.48-3.18 1.48-.53 0-.99-.06-1.38-.17-.39-.11-.81-.29-1.25-.53v4.21h-3.31v-13.79h3.31v1.05c.49-.4.98-.72 1.49-.96.5-.25 1.09-.37 1.75-.37 1.23 0 2.18.46 2.86 1.39.66.93 1 2.2 1 3.79zm-3.39.07c0-.98-.16-1.7-.48-2.14-.32-.44-.82-.67-1.49-.67-.3 0-.59.05-.88.13-.29.09-.58.22-.87.4v5.08c.18.08.37.12.58.15.21.03.46.05.75.05.81 0 1.41-.25 1.8-.75.4-.49.59-1.25.59-2.25zm-11.65 5.12v-5.04c0-.5-.01-.92-.03-1.26-.01-.34-.08-.62-.17-.84a.882.882 0 0 0-.44-.47c-.2-.1-.48-.15-.84-.15-.25 0-.5.05-.75.16s-.51.25-.8.44v7.15h-3.33v-5.04c0-.49-.01-.91-.03-1.25-.02-.34-.08-.62-.17-.84a.882.882 0 0 0-.44-.47c-.2-.1-.47-.15-.83-.15-.27 0-.54.06-.79.18-.26.12-.51.26-.76.42v7.15h-3.31v-10.09h3.31v1.11c.54-.44 1.05-.78 1.53-1.02.48-.25 1.02-.37 1.62-.37.65 0 1.22.15 1.71.44.49.29.87.73 1.13 1.31.64-.56 1.24-1 1.8-1.3.56-.3 1.14-.45 1.72-.45.49 0 .93.08 1.32.22.39.15.72.37.99.67.3.32.52.71.67 1.15.15.45.22 1.03.22 1.75v6.57l-3.33.02zm-14.07 0h-3.31v-10.09h3.31v10.09zm.09-11.53h-3.5v-2.45h3.5v2.45zm-9.97 11.77c-1.08 0-2.03-.1-2.84-.3-.82-.2-1.58-.44-2.28-.74V445h.32c.71.57 1.49 1.01 2.34 1.31.85.31 1.68.46 2.48.46.2 0 .47-.02.8-.06.33-.05.6-.11.8-.2.25-.1.45-.24.62-.43.17-.18.26-.42.26-.72 0-.34-.14-.61-.42-.82-.28-.21-.61-.36-.99-.46-.48-.12-.99-.23-1.54-.34-.55-.11-1.05-.24-1.53-.4-1.09-.37-1.87-.86-2.35-1.47-.47-.62-.71-1.39-.71-2.32 0-1.25.56-2.27 1.67-3.04 1.12-.78 2.51-1.16 4.18-1.16.84 0 1.67.08 2.5.24.83.16 1.57.38 2.23.66v3.06h-.31c-.52-.43-1.16-.78-1.92-1.08-.75-.29-1.53-.44-2.32-.44-.31 0-.59.02-.83.06-.25.05-.5.12-.78.24-.22.1-.41.24-.57.43-.16.19-.24.4-.24.63 0 .34.13.61.38.81.26.2.75.38 1.48.54.47.1.93.2 1.37.3.44.1.91.23 1.4.4.98.34 1.7.79 2.18 1.35.48.57.71 1.31.71 2.24 0 1.33-.55 2.4-1.65 3.21-1.08.81-2.56 1.21-4.44 1.21zm215.81-22.73h-90.98V297.05h34.23v104.77h56.74l.01 24.66zm-99.91-64.62c0 12.06-2.78 22.85-8.33 32.38-5.55 9.54-12.57 16.85-21.05 21.95-7.08 4.35-14.78 7.14-23.11 8.39-8.33 1.25-17.19 1.87-26.59 1.87h-42.65V297.02h42.28c9.58 0 18.55.58 26.91 1.74 8.36 1.16 16.2 3.97 23.52 8.43 8.97 5.45 16.05 12.8 21.23 22.04 5.19 9.24 7.78 20.13 7.78 32.64v-.01zm-35.15-.27c0-8.52-1.54-15.81-4.62-21.86-3.08-6.06-7.82-10.79-14.23-14.21-4.64-2.43-9.5-3.77-14.6-4-5.1-.23-11.18-.35-18.26-.35h-.64v81.02h.64c7.69 0 14.17-.13 19.45-.39 5.28-.26 10.29-1.81 15.06-4.65 5.61-3.36 9.89-8 12.81-13.91 2.93-5.91 4.39-13.12 4.39-21.65zm-151.9 67.18c-10.43 0-19.6-.96-27.5-2.87-7.9-1.91-15.24-4.29-22.01-7.13V388h3.11a77.222 77.222 0 0 0 22.61 12.69c8.24 2.96 16.23 4.43 23.98 4.43 1.95 0 4.53-.2 7.73-.61s5.78-1.04 7.73-1.91c2.38-.99 4.39-2.36 6.04-4.13 1.65-1.77 2.47-4.1 2.47-7 0-3.25-1.34-5.88-4.03-7.91-2.69-2.03-5.89-3.51-9.61-4.43-4.64-1.16-9.6-2.26-14.87-3.3-5.28-1.04-10.2-2.32-14.78-3.83-10.56-3.54-18.12-8.29-22.7-14.25-4.58-5.97-6.86-13.45-6.86-22.43 0-12.11 5.4-21.92 16.2-29.43 10.8-7.51 24.28-11.26 40.46-11.26 8.11 0 16.19.78 24.21 2.35s15.21 3.68 21.55 6.35v29.56h-3.02c-5.06-4.11-11.24-7.59-18.54-10.43-7.29-2.84-14.78-4.26-22.47-4.26-2.99 0-5.67.2-8.05.61-2.38.41-4.88 1.19-7.51 2.35-2.14.93-3.98 2.3-5.54 4.13s-2.33 3.87-2.33 6.13c0 3.3 1.24 5.93 3.71 7.87 2.47 1.94 7.25 3.69 14.32 5.26 4.58.99 8.98 1.94 13.23 2.87 4.24.93 8.77 2.2 13.59 3.83 9.46 3.25 16.49 7.6 21.1 13.08 4.61 5.48 6.91 12.71 6.91 21.69 0 12.86-5.32 23.21-15.97 31.04-10.65 7.79-25.04 11.7-43.16 11.71z"/>
    <path fill="#173556" fill-rule="evenodd" d="M909.33 486.12c-.84 0-1.53.59-1.53 1.32 0 .73.68 1.32 1.53 1.32.84 0 1.53-.59 1.53-1.32 0-.73-.69-1.32-1.53-1.32zm65.41 11.87c-1.32 0-2.39.93-2.39 2.07 0 1.14 1.07 2.07 2.39 2.07s2.39-.93 2.39-2.07c0-1.15-1.07-2.07-2.39-2.07zm-33.94-4.49c-1.05 0-1.91.74-1.91 1.66 0 .91.85 1.65 1.91 1.65 1.05 0 1.91-.74 1.91-1.65 0-.91-.86-1.66-1.91-1.66zm71.12 5.82c-1.65 0-2.98 1.16-2.98 2.59s1.33 2.59 2.98 2.59 2.98-1.16 2.98-2.59-1.34-2.59-2.98-2.59zm38.39-2c-2.06 0-3.73 1.45-3.73 3.23 0 1.79 1.67 3.23 3.73 3.23s3.73-1.45 3.73-3.23-1.67-3.23-3.73-3.23zm38.47-6.57c-2.57 0-4.66 1.81-4.66 4.04s2.09 4.04 4.66 4.04c2.57 0 4.66-1.81 4.66-4.04s-2.08-4.04-4.66-4.04zm38.5-12.03c-3.22 0-5.82 2.26-5.82 5.05s2.61 5.05 5.82 5.05c3.22 0 5.82-2.26 5.82-5.05.01-2.79-2.6-5.05-5.82-5.05zm36.87-16c-3.57 0-6.47 2.51-6.47 5.61 0 3.1 2.9 5.61 6.47 5.61s6.47-2.51 6.47-5.61-2.9-5.61-6.47-5.61zm33.6-23.01c-3.97 0-7.19 2.79-7.19 6.23 0 3.44 3.22 6.24 7.19 6.24s7.19-2.79 7.19-6.24c0-3.44-3.21-6.23-7.19-6.23zm27.72-32.37c-5.16 0-9.35 3.63-9.35 8.11 0 4.48 4.18 8.11 9.35 8.11 5.16 0 9.35-3.63 9.35-8.11-.01-4.48-4.19-8.11-9.35-8.11zm11.9-33.58c-3.97 0-7.19 2.79-7.19 6.24 0 3.44 3.22 6.23 7.19 6.23s7.19-2.79 7.19-6.23c0-3.44-3.22-6.24-7.19-6.24zm-4.01-20.96c2.84 0 5.14-1.99 5.14-4.45s-2.3-4.45-5.14-4.45-5.13 1.99-5.13 4.45c-.01 2.46 2.29 4.45 5.13 4.45zm-12.54-24.22c2.03 0 3.67-1.42 3.67-3.18s-1.64-3.18-3.67-3.18c-2.03 0-3.67 1.42-3.67 3.18s1.64 3.18 3.67 3.18zm-13.79-20.31c-1.35 0-2.44.95-2.44 2.12 0 1.17 1.09 2.12 2.44 2.12 1.35 0 2.45-.95 2.45-2.12 0-1.17-1.1-2.12-2.45-2.12zm-14.67-8.32c.9 0 1.63-.63 1.63-1.41 0-.78-.73-1.41-1.63-1.41-.9 0-1.63.63-1.63 1.41 0 .78.72 1.41 1.63 1.41" clip-rule="evenodd"/>
  </g>
</svg>
