<svg xmlns="http://www.w3.org/2000/svg" xml:space="preserve" width="600.96" height="250">
  <path fill="#303030" d="M0 0h600.96v250H0z"/>
  <linearGradient id="a" x1="-2063.214" x2="-2047.757" y1="803.836" y2="783.723" gradientTransform="matrix(1 0 0 -1 2194 974.979)" gradientUnits="userSpaceOnUse">
    <stop offset="0" stop-color="#15768c"/>
    <stop offset=".169" stop-color="#188b9d"/>
    <stop offset=".381" stop-color="#1a9eac"/>
    <stop offset=".598" stop-color="#1ca9b5"/>
    <stop offset=".83" stop-color="#1cadb8"/>
  </linearGradient>
  <path fill="url(#a)" d="M85.5 188.9c16.03 10.9 34.8 14.7 51.97 8.78 19.64-6.8 32.63-24.88 36.51-46.99-12.92 9.57-29.63 18.84-48.51 26.33-14.02 5.57-27.62 9.52-39.97 11.88z"/>
  <linearGradient id="b" x1="-2142.412" x2="-2081.884" y1="889.782" y2="921.487" gradientTransform="matrix(1 0 0 -1 2194 974.979)" gradientUnits="userSpaceOnUse">
    <stop offset=".066" stop-color="#f63"/>
    <stop offset=".237" stop-color="#ff7133"/>
    <stop offset=".637" stop-color="#ff8733"/>
    <stop offset=".897" stop-color="#ff8f33"/>
  </linearGradient>
  <path fill="url(#b)" d="M132.92 58.89c-15.23-9.16-32.56-12.08-48.48-6.57-18.77 6.5-31.42 23.25-35.94 43.99 12.92-9.57 29.63-18.84 48.55-26.37 12.5-4.97 24.66-8.65 35.87-11.05z"/>
  <path fill="#f63" d="M191.54 68.39c-3.91-13.03-27.73-16.15-58.58-9.5-11.21 2.39-23.36 6.08-35.86 11.06-18.88 7.52-35.63 16.79-48.55 26.37-19.07 14.13-29.75 28.91-26.56 39.51 2.62 8.74 14.7 13.03 31.65 12.42 16.87-.57 38.6-6 60.67-16.6-26.56 5.89-46.69 5.01-46.2-2.66.72-11.25 27.73-32.63 68.08-47.68 5.85-2.17 11.32-4.06 16.45-5.66 17.29-5.43 30.47-7.75 39.05-6.91-.12-.12-.12-.24-.15-.35z"/>
  <path fill="#1fbec9" d="M200.58 111.13c-2.74-9.08-15.58-13.33-33.51-12.35-16.6.91-37.5 6.31-58.77 16.53 26.56-5.89 46.69-5.01 46.2 2.66-.72 11.25-27.73 32.63-68.08 47.68a323.3 323.3 0 0 1-18.96 6.46c-16.03 4.9-28.38 6.91-36.51 6.12.04.11.04.23.08.34 3.76 12.46 25.61 15.84 54.48 10.33 12.35-2.36 25.95-6.31 39.97-11.89 18.88-7.52 35.6-16.79 48.51-26.33 19.1-14.17 29.78-28.95 26.59-39.55z"/>
  <linearGradient id="c" x1="-2143.411" x2="-2054.637" y1="848.342" y2="890.423" gradientTransform="matrix(1 0 0 -1 2194 974.979)" gradientUnits="userSpaceOnUse">
    <stop offset="0" stop-color="#ed5f2f"/>
    <stop offset="1" stop-color="#f63"/>
  </linearGradient>
  <path fill="url(#c)" d="M68.07 128.99c.72-11.25 27.73-32.63 68.08-47.68 5.85-2.17 11.32-4.06 16.45-5.66-5.85-6.8-12.54-12.46-19.64-16.75-11.21 2.39-23.36 6.08-35.86 11.06-18.88 7.52-35.63 16.79-48.55 26.37-3.27 15.01-2.24 32.1 3.91 48.93.38 1.03.76 2.01 1.18 3 16.87-.57 38.6-6 60.67-16.6-26.6 5.87-46.74 5.04-46.24-2.67z"/>
  <linearGradient id="d" x1="-2124.635" x2="-2039.897" y1="811.069" y2="843.35" gradientTransform="matrix(1 0 0 -1 2194 974.979)" gradientUnits="userSpaceOnUse">
    <stop offset="0" stop-color="#1bacb5"/>
    <stop offset=".911" stop-color="#1fbec9"/>
  </linearGradient>
  <path fill="url(#d)" d="M169.46 104.75c-.76-2.01-1.56-3.99-2.43-5.96-16.6.91-37.5 6.31-58.77 16.53 26.56-5.89 46.69-5.01 46.2 2.66-.72 11.25-27.73 32.63-68.08 47.68a323.3 323.3 0 0 1-18.96 6.46c5.36 6.69 11.47 12.35 18.05 16.83 12.35-2.36 25.95-6.31 39.97-11.89 18.88-7.52 35.6-16.79 48.51-26.33 2.54-14.34 1.25-30.25-4.49-45.98z"/>
  <path fill="#fff" d="M248.26 163.94c-6-1.98-11.21-4.75-15.58-8.28l9.65-13.49c7.03 5.51 15.23 8.28 24.58 8.28 4.67 0 8.4-.8 11.17-2.36 2.77-1.6 4.14-3.76 4.14-6.5 0-2.55-1.29-4.56-3.84-6-2.55-1.44-6.65-2.47-12.23-3.04-10.83-1.22-18.73-3.76-23.71-7.6-5.01-3.84-7.56-9.38-7.56-16.53 0-4.82 1.33-9.12 4.06-12.76 2.74-3.72 6.53-6.57 11.44-8.62 4.9-2.05 10.6-3.04 16.98-3.04 5.51 0 10.9.8 16.15 2.36 5.24 1.56 9.88 3.8 13.9 6.69l-8.78 13.03c-6.19-4.29-13.03-6.5-20.51-6.5-4.6 0-8.32.76-11.02 2.28-2.77 1.52-4.14 3.53-4.14 6.12 0 2.51 1.22 4.41 3.57 5.77 2.36 1.33 6.34 2.36 11.93 3.04 10.71 1.22 18.73 3.88 24.05 8.02 5.28 4.1 7.9 9.73 7.9 16.94 0 5.01-1.37 9.38-4.22 13.18-2.81 3.8-6.69 6.76-11.78 8.85-5.05 2.05-10.87 3.12-17.44 3.12-6.48 0-12.75-.99-18.71-2.96zm62.15-78.15h17.78v79.29h-17.78V85.79zm89.77 23.33v56h-15.42l-1.1-6.69c-4.75 5.24-10.94 7.83-18.58 7.83-5.24 0-9.84-1.22-13.9-3.65-4.03-2.47-7.18-5.89-9.46-10.33-2.28-4.41-3.38-9.46-3.38-15.08 0-5.66 1.1-10.71 3.38-15.08 2.28-4.41 5.39-7.86 9.46-10.33 4.03-2.47 8.66-3.65 13.9-3.65 3.76 0 7.26.68 10.41 1.98 3.15 1.33 5.89 3.23 8.17 5.74l1.1-6.57h15.42v-.17zm-21.24 38.25c2.51-2.58 3.76-6.04 3.76-10.22 0-4.25-1.25-7.64-3.76-10.22-2.51-2.58-5.74-3.88-9.65-3.88s-7.1 1.33-9.57 3.99c-2.47 2.62-3.65 6.04-3.65 10.18s1.22 7.56 3.65 10.18c2.47 2.62 5.62 3.99 9.57 3.99 3.92-.14 7.14-1.43 9.65-4.02zm85.78-32.71c4.1 4.52 6.15 10.83 6.15 18.81v31.57H453.1v-30.62c0-3.61-.91-6.5-2.74-8.47-1.82-2.01-4.29-3.04-7.45-3.04-3.5 0-6.27 1.18-8.4 3.53-2.09 2.32-3.15 5.39-3.15 9.16v29.44h-17.78v-55.92H429l1.1 6.57c2.2-2.51 4.82-4.41 7.86-5.77 3.04-1.33 6.42-2.05 10.14-2.05 6.97-.01 12.48 2.27 16.62 6.79zm74.2 48.44c2.05 3.04 3.12 6.57 3.12 10.6 0 4.67-1.29 8.81-3.84 12.42-2.55 3.57-6.19 6.34-10.87 8.28-4.67 1.94-10.14 2.89-16.3 2.89-6.04 0-11.36-.99-15.84-2.96-4.52-1.98-8.05-4.75-10.49-8.4-2.47-3.61-3.65-7.83-3.65-12.54 0-1.22.04-2.09.15-2.74h17.1c-.15 3.72.91 6.57 3.12 8.62 2.24 2.05 5.43 3.04 9.69 3.04 3.8 0 6.84-.84 9.16-2.55 2.32-1.71 3.53-3.91 3.53-6.76s-1.06-5.09-3.23-6.61c-2.13-1.56-5.24-2.32-9.23-2.32-6.19 0-11.62-1.18-16.26-3.53-4.63-2.32-8.21-5.62-10.75-9.92-2.55-4.25-3.8-9.23-3.8-14.89 0-5.43 1.29-10.26 3.88-14.55 2.58-4.25 6.19-7.6 10.87-9.95 4.63-2.36 9.95-3.57 15.92-3.57 4.6 0 8.85.91 12.69 2.74l6.57-8.17 13.03 9.38-7.45 8.7c3.76 4.29 5.66 9.42 5.66 15.42 0 4.14-.99 8.02-3 11.47-2.01 3.53-4.82 6.38-8.43 8.66 3.63 1.77 6.56 4.2 8.65 7.24zm-18.31-17.74c2.43-2.43 3.61-5.62 3.61-9.65s-1.22-7.18-3.57-9.57c-2.36-2.36-5.58-3.57-9.57-3.57-3.91 0-7.1 1.22-9.5 3.57-2.43 2.36-3.61 5.58-3.61 9.57 0 3.91 1.22 7.1 3.61 9.57 2.43 2.47 5.58 3.65 9.5 3.65 3.94.11 7.1-1.1 9.53-3.57zm43.76-36.17v2.51h-3.76v9.76h-2.89v-9.76H554v-2.51h10.37zm12.58 0h2.58v12.27h-2.85v-7.67l-3.61 4.41h-.57l-3.65-4.44v7.67H566v-12.27h2.58l4.18 5.2 4.19-5.17z"/>
</svg>
