<svg xmlns="http://www.w3.org/2000/svg" viewBox="0 0 1111.58 250"><path d="M0 0h1111.58v250H0z" style="fill:#ee2722"/><path d="M784.31 124.93c.03-1.05-.41-2.05-1.2-2.74-.74-.56-1.65-.85-2.57-.79h-4.47l-34.47 78.11-8.98-41.84c-.52-3.68-3.48-6.19-6.96-5.98h-5.8l-27.21 47.37.27-73.91c.05-1.1-.41-2.16-1.23-2.88-.78-.61-1.76-.92-2.75-.87h-5.81v88.79h7.57c2.18.02 4.15-.53 5.75-1.69 1.46-1.05 2.73-2.5 3.84-4.26l23.82-42.51 9.92 48.46h6.36c4.05 0 7.44-2.36 9.22-6.38l34.25-77.02c.25-.63.45-1.05.46-1.85m312.24-3.55h-36.64c-17.11.04-18.93 14.1-19.01 20.73 0 6.97 5.07 12.52 7.59 14.78l24.95 24.44c2.96 2.91 4.4 6.35 4.4 9.53 0 5.41-4.13 9.84-10.82 9.81 0 .04-32.29.05-32.59.14-1.05.19-2.16 1.59-2.14 2.69h-.09l.09.04v6.66h36.27c17.13-.06 18.92-14.09 19.01-20.72v-.06c0-9.17-8.44-16.27-8.5-16.3l-23.66-23.28c-2.96-2.91-4.77-5.9-4.79-9.12.01-5.43 4.15-9.83 10.79-9.83.04-.01 32.7-.04 32.97-.12l.09.24-.07-.24c1.06-.2 2.18-1.59 2.16-2.7 0 0-.01-.01 0-.03v-6.66m-261.52 8.91c-16.29-.9-34.9 8.69-41.3 34.57-6.3 25.38 5.48 37.71 21.44 39.76l1.66.07c16.48.88 34.01-8.72 40.17-34.61 6.03-25.39-5.78-38.14-21.96-39.8m31.48 40.57c-5.99 25.24-24.18 45.16-53.21 42.92-27.02-3.14-34.75-26.91-29.06-49.68 6.29-25.22 24.42-45.13 53.03-42.92v.03c26.65 3.11 34.63 26.9 29.24 49.65m161.69-48.62c-.72-.49-1.58-.73-2.44-.69h-4.33l-45.7 39.08 6.08-34.54a3.65 3.65 0 0 0-1.33-3.76c-.8-.61-1.78-.94-2.78-.94h-4.4l-16.51 88.79h9.77l7.22-39.3L1010 210.2h4.33c.87.03 1.72-.21 2.43-.71.74-.58 1.16-1.48 1.13-2.42 0-1.59-1.3-3.2-1.3-3.2l-34.25-37.21 45.71-38.82s1.28-1.1 1.28-3.2c.02-.93-.39-1.82-1.11-2.42m-91.74 12.65c-1.79-1.73-4.51-2.56-8.72-3.35-1.64-.25-3.3-.41-4.96-.47-5.08-.28-20.18-.05-24.8-.01l-5.85 32.3c3.48.05 7.46.1 10.26.12 7.9 0 15.55-.25 20.95-1.73 13.91-3.76 20.8-19.54 13.12-26.85m8.97-5.37c3.96 4.49 4.25 12.83 3.13 17.98-1.37 6.27-7.34 22.11-29.71 24.11l18.84 32.29s1.28 1.93 1.28 3.2c.01.84-.36 1.89-1.12 2.42-.7.5-1.55.75-2.42.71h-4.98l-22.1-38.09-17.8-.08-6.91 38.17h-9.78l16.53-88.81h22.81c13.48 0 25.31.2 32.22 8.11M288.8 140.36c-1.11 7.15 1.09 15.55 9.06 21.11l28.38 19.81c2.98 2.06 4.45 3.48 4.09 5.88-.53 3.32-2.26 4.65-8.15 4.65h-33.01c-3.53 0-5.45 1.73-6.09 5.72v12.3h38.67c16.94 0 25.33-9.99 27.03-20.62 1.59-9.99-1.77-17.13-8.22-21.73l-30.17-21.41c-2.42-1.74-3.03-2.64-2.86-3.95.27-2.18 2.26-3.07 5.69-3.07h34.47c4.21 0 6.61-4.3 7.28-8.57v-9.45H309.4c-10.12 0-18.96 9.04-20.59 19.34m343.57-19.36h-47.81l-.24 1.43c-1.12 6.02-.62 13.01 8.92 13.01h35.4c14.02 0 19.38 10.15 15.91 29.17-3.19 17.44-12.58 30.75-26.84 30.75h-19.19l9.11-49.95h-16.32c-2.2 0-3.71 1.6-3.97 3.02l-11.21 61.36h37.44c27.64 0 46.91-13.02 52.88-45.83 4.61-25.22-5.88-42.98-34.08-42.98m-113.49 74.4h-37.73l13.04-71.36a2.6 2.6 0 0 0-2.14-2.98c-.15-.02-.3-.04-.45-.03h-16.6l-16.22 88.79h62.5l1.62-8.87c.72-3.98-.61-5.55-4.02-5.55m47.03-74.38h-16.61l-16.22 88.81h19.74l15.67-85.79c.24-1.41-.71-2.74-2.11-2.98-.16-.03-.32-.04-.48-.04m-153.55 15.22c-18.02 0-27.46 10.48-30.84 31.08-3.38 20.64 2.62 31.09 20.63 31.09s27.44-10.46 30.83-31.09c3.39-20.6-2.6-31.08-20.62-31.08m40.22 31.08c-4.15 25.22-21.2 46.33-52.93 46.33s-41.87-21.11-37.73-46.33c4.13-25.2 21.2-46.29 52.93-46.29s41.86 21.09 37.72 46.29M221.89 90.08c-18.87-3.1-52.6-4.3-64.14 13.38-8.91 13.66 7.93 32.36 23.26 50.48 12.29 14.51 25.66 28.38 20.2 36.49-4.46 6.63-33.03 6.61-42.88 7.14-11.95.63-29.17.66-32.17 2.31-2.7 1.44-4.2 5.95 5.91 7.76 8.13 1.46 27.49 4.43 47.9 4.41 21.31 0 43.7-3.5 48.55-19.99 3.9-13.25-9.63-27.46-21.52-41.86-13.02-15.78-26.21-27.02-25.09-38.19.84-8.7 17.88-9.19 46.16-9.68 5.88-.11 17.59-.39 15.33-5.03-2.01-4.1-10.77-5.46-21.5-7.21m-86.99 39.33c-12.1-8.3-33.67-11.08-51.43-10.15-15.81.83-43 5.86-41.98 10.87.97 5.41 18.17 3.73 26.06 3.73 17.34 0 44.86 1.06 49.2 12.23 9.34 24.08-54.04 67.3-67.56 63.15-6.11-1.87 12.42-33.29 19.14-44.58 3.99-6.75 10.09-17.34 4.9-18.07-5.81-.8-12.21 9.17-16.37 14.93-11.28 15.63-22.82 32.69-32.09 50.22-2.88 5.42-12.37 21.71-9.11 23.82 3.05 1.96 17.54-.83 35.98-8.14 57.97-22.94 84.08-52.85 91.07-77.56 2.45-8.7-1.79-16.3-7.81-20.43M91.87 23.87c-1.18-3.9 18.15-8.97 39.36-9.91 21.36-.94 46.64 3.31 51.35 17.41 7.72 23.1-31.41 56.78-65.49 73.33-8.36 4.04-13.42 5.16-15.54 4.87-2-.27-2.32-2.14-1.67-3.43 1.2-2.43 6.72-7.38 14.07-12.76 38.37-28.03 50.85-48.6 43.6-56.92-4.65-5.34-24.1-9.06-44.3-9.06-5.48 0-19.89 1.2-21.38-3.53" style="fill:#fff"/></svg>