<svg xmlns="http://www.w3.org/2000/svg" viewBox="0 0 1279.96 250"><path d="M0 0h1279.96v250H0z" style="fill:#deeff9"/><path d="M155.94 49.6c-33.51 0-54.45 16.76-62.83 50.27 12.57-16.76 27.23-23.04 43.98-18.85 9.56 2.39 16.39 9.33 23.96 17 12.32 12.51 26.58 26.98 57.73 26.98 33.51 0 54.45-16.76 62.83-50.27-12.57 16.76-27.23 23.04-43.98 18.85-9.56-2.39-16.39-9.33-23.96-17-12.32-12.51-26.58-26.98-57.73-26.98M93.11 125c-33.51 0-54.45 16.76-62.83 50.27 12.57-16.76 27.23-23.04 43.98-18.85 9.56 2.39 16.39 9.33 23.96 17 12.32 12.51 26.58 26.98 57.73 26.98 33.51 0 54.45-16.76 62.83-50.27-12.57 16.76-27.23 23.04-43.98 18.85-9.56-2.39-16.39-9.33-23.96-17C138.52 139.47 124.26 125 93.11 125" style="fill:#38bdf8;fill-rule:evenodd"/><path d="M407.25 113.14h-21.93v42.45c0 11.32 7.43 11.14 21.93 10.43v17.16c-29.36 3.54-41.03-4.6-41.03-27.59v-42.45h-16.27V94.75h16.27V71l19.1-5.66v29.41h21.93zm83.6-18.39h19.1v88.43h-19.1v-12.73c-6.72 9.37-17.16 15.03-30.95 15.03-24.05 0-44.04-20.34-44.04-46.51s19.99-46.51 44.04-46.51c13.79 0 24.23 5.66 30.95 14.86V94.76Zm-27.94 72.51c15.92 0 27.94-11.85 27.94-28.3s-12.03-28.3-27.94-28.3-27.94 11.85-27.94 28.3 12.03 28.3 27.94 28.3m78.88-85.78c-6.72 0-12.2-5.66-12.2-12.2.01-6.73 5.47-12.19 12.2-12.2 6.73.01 12.19 5.47 12.2 12.2 0 6.54-5.48 12.2-12.2 12.2m-9.55 101.7V94.75h19.1v88.43zm41.2 0V54.07h19.1v129.11zm143.08-88.43h20.16l-27.77 88.43h-18.75l-18.39-59.6-18.57 59.6h-18.75l-27.77-88.43h20.16L644 155.77l18.57-61.02h18.22l18.39 61.02 17.33-61.02Zm43.86-13.27c-6.72 0-12.2-5.66-12.2-12.2.01-6.73 5.47-12.19 12.2-12.2 6.73.01 12.19 5.47 12.2 12.2 0 6.54-5.48 12.2-12.2 12.2m-9.55 101.7V94.75h19.1v88.43zm87.73-90.73c19.81 0 33.96 13.44 33.96 36.43v54.3h-19.1v-52.35c0-13.44-7.78-20.52-19.81-20.52s-22.46 7.43-22.46 25.47v47.4h-19.1V94.75h19.1v11.32c5.84-9.2 15.39-13.62 27.41-13.62m124.5-33.07h19.1v123.8h-19.1v-12.73c-6.72 9.37-17.16 15.03-30.95 15.03-24.05 0-44.04-20.34-44.04-46.51s19.99-46.51 44.04-46.51c13.8 0 24.23 5.66 30.95 14.86V59.39Zm-27.94 107.88c15.92 0 27.94-11.85 27.94-28.3s-12.03-28.3-27.94-28.3-27.94 11.85-27.94 28.3 12.03 28.3 27.94 28.3m111.07 18.22c-26.71 0-46.69-20.34-46.69-46.51s19.99-46.51 46.69-46.51c17.33 0 32.37 9.02 39.44 22.81l-16.45 9.55c-3.89-8.31-12.56-13.62-23.17-13.62-15.56 0-27.41 11.85-27.41 27.77s11.85 27.77 27.41 27.77c10.61 0 19.28-5.48 23.52-13.62l16.45 9.37c-7.43 13.97-22.46 22.99-39.79 22.99m71.27-66.33c0 16.09 47.58 6.37 47.58 39.09 0 17.69-15.39 27.24-34.49 27.24-17.69 0-30.42-7.96-36.08-20.69l16.45-9.55c2.83 7.96 9.9 12.73 19.63 12.73 8.49 0 15.03-2.83 15.03-9.9 0-15.74-47.58-6.9-47.58-38.56 0-16.62 14.33-27.06 32.37-27.06 14.5 0 26.53 6.72 32.72 18.39l-16.09 9.02c-3.18-6.9-9.37-10.08-16.62-10.08s-12.91 3.01-12.91 9.37Zm81.53 0c0 16.09 47.58 6.37 47.58 39.09 0 17.69-15.39 27.24-34.49 27.24-17.69 0-30.42-7.96-36.08-20.69l16.45-9.55c2.83 7.96 9.9 12.73 19.63 12.73 8.49 0 15.03-2.83 15.03-9.9 0-15.74-47.58-6.9-47.58-38.56 0-16.62 14.33-27.06 32.37-27.06 14.5 0 26.53 6.72 32.72 18.39l-16.09 9.02c-3.18-6.9-9.37-10.08-16.62-10.08s-12.91 3.01-12.91 9.37Z" style="fill:#0f172a;fill-rule:evenodd"/></svg>