<svg xmlns="http://www.w3.org/2000/svg" viewBox="0 0 1254.7 250"><path d="M0 0h1254.7v250H0z" style="fill:#52525c"/><path d="M231.56 127.13c0-6.64-.6-13.03-1.7-19.15h-88.2v36.27h50.4c-2.21 11.66-8.85 21.54-18.81 28.18v23.58h30.39c17.71-16.35 27.92-40.35 27.92-68.87Z" style="fill:#4285f4"/><path d="M141.66 218.65c25.28 0 46.48-8.34 61.98-22.65l-30.39-23.58c-8.34 5.62-18.98 9.02-31.58 9.02-24.35 0-45.04-16.43-52.44-38.57H58.07v24.18c15.41 30.56 46.99 51.59 83.6 51.59Z" style="fill:#34a853"/><path d="M89.21 142.79c-1.87-5.62-2.98-11.58-2.98-17.79s1.11-12.17 2.98-17.79V83.03H58.05C51.67 95.63 48 109.85 48 125s3.66 29.37 10.05 41.97l24.26-18.9z" style="fill:#fbbc05"/><path d="M141.66 68.64c13.79 0 26.05 4.77 35.84 13.96l26.82-26.82c-16.26-15.15-37.37-24.43-62.66-24.43-36.61 0-68.19 21.03-83.6 51.68l31.16 24.18c7.41-22.13 28.09-38.57 52.44-38.57" style="fill:#ea4335"/><path d="M48.01 31.35H235.3v187.29H48.01z" style="fill:none"/><path d="M306.74 75.81h-32.76V63.98h79.75v11.83h-32.92v95.89h-14.06V75.81ZM361.72 135.59c.32 19.02 12.47 26.85 26.53 26.85 10.07 0 16.14-1.76 21.42-4l2.4 10.07c-4.95 2.24-13.43 4.79-25.73 4.79-23.81 0-38.04-15.66-38.04-39s13.74-41.71 36.28-41.71c25.25 0 31.96 22.22 31.96 36.44 0 2.88-.32 5.11-.48 6.55h-54.34Zm41.23-10.07c.16-8.95-3.68-22.85-19.5-22.85-14.22 0-20.46 13.11-21.58 22.85h41.07ZM432.04 157.32c4.16 2.72 11.51 5.59 18.54 5.59 10.23 0 15.02-5.11 15.02-11.51 0-6.71-4-10.39-14.38-14.22-13.9-4.95-20.46-12.63-20.46-21.9 0-12.47 10.07-22.69 26.69-22.69 7.83 0 14.7 2.24 19.02 4.79l-3.52 10.23c-3.04-1.92-8.63-4.48-15.82-4.48-8.31 0-12.95 4.79-12.95 10.55 0 6.39 4.63 9.27 14.7 13.1 13.42 5.11 20.3 11.83 20.3 23.33 0 13.58-10.55 23.17-28.93 23.17-8.47 0-16.3-2.08-21.74-5.27l3.52-10.71ZM495.33 157.32c4.16 2.72 11.51 5.59 18.54 5.59 10.23 0 15.02-5.11 15.02-11.51 0-6.71-4-10.39-14.38-14.22-13.9-4.95-20.46-12.63-20.46-21.9 0-12.47 10.07-22.69 26.69-22.69 7.83 0 14.7 2.24 19.02 4.79l-3.52 10.23c-3.04-1.92-8.63-4.48-15.82-4.48-8.31 0-12.95 4.79-12.95 10.55 0 6.39 4.63 9.27 14.7 13.1 13.42 5.11 20.3 11.83 20.3 23.33 0 13.58-10.55 23.17-28.93 23.17-8.47 0-16.3-2.08-21.74-5.27l3.52-10.71ZM568.36 135.59c.32 19.02 12.47 26.85 26.53 26.85 10.07 0 16.14-1.76 21.42-4l2.4 10.07c-4.95 2.24-13.43 4.79-25.73 4.79-23.81 0-38.04-15.66-38.04-39s13.74-41.71 36.28-41.71c25.25 0 31.96 22.22 31.96 36.44 0 2.88-.32 5.11-.48 6.55h-54.34Zm41.24-10.07c.16-8.95-3.68-22.85-19.5-22.85-14.22 0-20.46 13.11-21.58 22.85h41.07ZM640.6 118.49c0-9.11-.16-16.94-.64-24.13h12.31l.48 15.18h.64c3.52-10.39 11.99-16.94 21.42-16.94 1.6 0 2.72.16 4 .48v13.27c-1.44-.32-2.88-.48-4.79-.48-9.91 0-16.94 7.51-18.86 18.06-.32 1.92-.64 4.16-.64 6.55v41.23h-13.9v-53.22ZM734.9 171.71l-1.12-9.75h-.48c-4.31 6.07-12.63 11.51-23.65 11.51-15.66 0-23.65-11.03-23.65-22.21 0-18.7 16.62-28.93 46.51-28.77v-1.6c0-6.39-1.76-17.9-17.58-17.9-7.19 0-14.7 2.24-20.14 5.75l-3.2-9.27c6.39-4.16 15.66-6.87 25.41-6.87 23.65 0 29.41 16.14 29.41 31.64v28.93c0 6.71.32 13.27 1.28 18.54zm-2.08-39.48c-15.34-.32-32.76 2.4-32.76 17.42 0 9.11 6.07 13.42 13.27 13.42 10.07 0 16.46-6.39 18.7-12.95.48-1.44.8-3.04.8-4.48v-13.42ZM824.24 168.83c-3.68 1.92-11.83 4.48-22.22 4.48-23.33 0-38.52-15.82-38.52-39.48s16.3-41.07 41.55-41.07c8.31 0 15.66 2.08 19.5 4l-3.2 10.87c-3.36-1.92-8.63-3.68-16.3-3.68-17.74 0-27.33 13.11-27.33 29.25 0 17.9 11.51 28.93 26.85 28.93 7.99 0 13.27-2.08 17.26-3.84l2.4 10.55ZM859.72 72.14v22.22h20.14v10.71h-20.14v41.71c0 9.59 2.72 15.02 10.55 15.02 3.68 0 6.39-.48 8.15-.96l.64 10.55c-2.72 1.12-7.03 1.92-12.47 1.92-6.55 0-11.83-2.08-15.18-5.91-4-4.16-5.43-11.03-5.43-20.14v-42.19h-11.99V94.36h11.99V75.82zM1022.09 116.73c0 37.08-22.53 56.74-50.02 56.74s-48.43-22.06-48.43-54.66c0-34.2 21.26-56.58 50.02-56.58s48.43 22.53 48.43 54.5m-83.58 1.76c0 23.01 12.47 43.63 34.36 43.63s34.52-20.3 34.52-44.75c0-21.42-11.19-43.79-34.36-43.79s-34.52 21.26-34.52 44.91M1115.43 168.19c-5.11 2.56-15.34 5.11-28.45 5.11-30.37 0-53.22-19.18-53.22-54.5s22.85-56.58 56.26-56.58c13.43 0 21.9 2.88 25.57 4.79l-3.36 11.35c-5.27-2.56-12.79-4.47-21.74-4.47-25.25 0-42.03 16.14-42.03 44.43 0 26.37 15.18 43.31 41.39 43.31 8.47 0 17.1-1.76 22.69-4.47l2.88 11.03ZM1132.85 65.42c7.03-1.44 17.1-2.24 26.69-2.24 14.86 0 24.45 2.72 31.17 8.79 5.43 4.79 8.47 12.15 8.47 20.46 0 14.22-8.95 23.65-20.3 27.49v.48c8.31 2.88 13.27 10.55 15.82 21.74 3.52 15.02 6.07 25.41 8.31 29.57h-14.38c-1.76-3.04-4.16-12.31-7.19-25.73-3.2-14.86-8.95-20.46-21.58-20.94h-13.11v46.67h-13.9V65.43Zm13.9 49.07h14.22c14.86 0 24.29-8.15 24.29-20.46 0-13.9-10.07-19.98-24.77-20.14-6.71 0-11.51.64-13.75 1.28v39.32Z" style="fill:#fff"/></svg>