<svg xmlns="http://www.w3.org/2000/svg" viewBox="0 0 1004 250"><path d="M0 0h1004v250H0z" style="fill:#3178c6"/><path d="M613 188.7v-9.37c8.56 5.42 17.22 8.13 26 8.13 9.33 0 16.42-1.92 21.25-5.76s7.25-9.22 7.25-16.13c0-6.08-1.62-10.93-4.88-14.56-3.13-3.49-9.79-8.21-19.98-14.14l-1.15-.66c-12.11-7.02-19.78-12.9-23-17.62q-4.83-7.095-4.83-16.38c0-8.4 3.28-15.54 9.83-21.4q9.84-8.79 26.25-8.79 10.665 0 21.33 3.57v8.63c-7-3.15-14.47-4.73-22.42-4.73s-14.54 2.05-19.29 6.14-7.12 9.29-7.12 15.59 1.62 10.92 4.88 14.51 10.26 8.49 21.04 14.68c11.17 6.3 18.6 11.9 22.29 16.79 3.7 4.89 5.54 10.52 5.54 16.88 0 9.12-3.18 16.56-9.54 22.31s-15.35 8.63-26.96 8.63c-4.11 0-8.85-.64-14.21-1.91s-9.46-2.74-12.29-4.4ZM316.83 90.76H351V74h-88v16.76h34.09V193h19.74zm65.67 115.85L421 108h-19.5l-21.33 61.92c-.51 1.9-.9 3.44-1.19 4.64l-.31 1.34h-.42c-.44-1.9-.8-3.38-1.06-4.45l-.44-1.7L356.42 108H335l33.92 84.83-5.75 13.95Q357.83 217.4 347 217.4c-2.5 0-5.28-.5-8.33-1.49v16.02q4.08 1.08 10.17 1.08c14.45 0 25.67-8.8 33.67-26.39Zm70.15-26.2h-.33V232h-19.31V107.99h19.31v14.93h.33c6.6-11.28 16.26-16.92 28.97-16.92 10.82 0 19.26 3.79 25.31 11.36 6.05 7.58 9.07 17.75 9.07 30.52 0 14.16-3.41 25.49-10.24 34.01s-16.15 12.77-27.97 12.77c-10.88 0-19.26-4.76-25.14-14.27Zm-.65-22.52v-10.48c0-7.26 2.09-13.31 6.28-18.15q6.285-7.26 16.59-7.26c6.49 0 11.63 2.35 15.43 7.05s5.7 11.21 5.7 19.51c0 9.9-2.04 17.62-6.11 23.14-4.08 5.53-9.69 8.29-16.84 8.29-6.1 0-11.13-2.15-15.1-6.43s-5.95-9.52-5.95-15.68Zm151-2.16h-57.61c.22 7.86 2.63 13.92 7.22 18.18s10.91 6.39 18.94 6.39c9.02 0 17.3-2.71 24.84-8.14v15.52c-7.7 4.87-17.88 7.31-30.54 7.31s-22.19-3.86-29.26-11.58-10.6-18.58-10.6-32.59c0-13.23 3.89-24.01 11.68-32.34 7.78-8.33 17.46-12.5 29.01-12.5s20.49 3.74 26.82 11.21 9.49 17.85 9.49 31.13v7.39Zm-22.85-29.94c3.18 3.86 4.8 9.26 4.85 16.21h-39c.88-6.56 3.22-11.86 7.03-15.92s8.46-6.08 13.95-6.08 9.98 1.93 13.16 5.79ZM724.91 195c8.81 0 16.4-1.93 22.76-5.8v-7.96c-6.36 4.53-13.83 6.79-22.42 6.79-9.37 0-16.92-3.34-22.63-10.03q-8.58-10.02-8.58-26.52c0-16.5 3.12-20.65 9.37-27.8s14.39-10.73 24.43-10.73q10.965 0 20.16 5.64v-8.62c-6.14-2.65-12.47-3.98-18.99-3.98-12.61 0-22.93 4.29-30.96 12.89-8.03 8.59-12.05 19.63-12.05 33.11s3.57 23.19 10.71 31.12S713.25 195 724.91 195M798 115.67c-2.54-1.83-5.52-2.75-8.94-2.75-6.68 0-12.28 3.47-16.81 10.42-4.53 6.94-6.79 16.81-6.79 29.58V193h-7.45v-85.33h7.45v18.92h.33c1.93-6.5 5-11.56 9.19-15.17s9.05-5.42 14.58-5.42c3.15 0 5.96.5 8.45 1.5v8.17Zm11.94-30.55c1.29 1.25 2.78 1.88 4.47 1.88 1.8 0 3.35-.66 4.64-1.97s1.94-2.88 1.94-4.7q0-2.91-1.98-4.62c-1.32-1.14-2.86-1.71-4.6-1.71-1.63 0-3.11.58-4.43 1.75S808 78.44 808 80.33s.65 3.54 1.94 4.79M810 193v-85h8v85zm33.62-15.13h.33q9.12 17.16 28.17 17.16c11.38 0 20.54-4.38 27.47-13.14s10.4-20.24 10.4-34.44c0-12.76-3.03-22.86-9.07-30.3S886.46 106 875.69 106q-10.185 0-18.69 5.1c-5.66 3.4-10.01 8.22-13.05 14.47h-.33v-17.49H836v123.93h7.62v-54.13Zm.38-31.59v10.68c0 8.5 2.71 15.8 8.12 21.9s12.53 9.15 21.34 9.15 15.87-3.71 21.34-11.13 8.2-17.18 8.2-29.26c0-10.6-2.51-19.01-7.53-25.25s-11.72-9.35-20.09-9.35c-9.99 0-17.71 3.31-23.18 9.93s-8.2 14.4-8.2 23.34ZM946.87 195c3.46 0 7.17-.94 11.13-2.81v-7.12q-5.445 3.06-10.14 3.06c-4.4 0-7.51-1.31-9.35-3.93s-2.76-6.86-2.76-12.71v-55.96H958v-6.95h-22.25V84c-1.21.44-2.47.86-3.79 1.24-1.32.44-2.58.88-3.79 1.32v22.02h-15.16v6.95h15.16v56.95c0 15.01 6.24 22.51 18.71 22.51Z" style="fill:#fff;fill-rule:evenodd"/><rect width="198.36" height="198.65" x="32.82" y="25.68" rx="20" ry="20" style="fill:#fff"/><path d="M149.45 181.24v21.43c3.48 1.79 7.6 3.13 12.35 4.02s9.76 1.34 15.03 1.34 10.01-.49 14.62-1.47 8.67-2.6 12.15-4.86c3.48-2.25 6.24-5.2 8.27-8.84s3.05-8.14 3.05-13.49c0-3.88-.58-7.29-1.74-10.21s-2.83-5.53-5.02-7.8c-2.19-2.28-4.81-4.32-7.86-6.13-3.06-1.81-6.5-3.52-10.34-5.12-2.81-1.16-5.33-2.29-7.56-3.38s-4.13-2.21-5.69-3.35-2.77-2.34-3.61-3.62-1.27-2.71-1.27-4.32c0-1.47.38-2.8 1.14-3.98s1.83-2.2 3.21-3.05 3.08-1.51 5.09-1.98 4.24-.7 6.69-.7c1.79 0 3.67.13 5.66.4s3.98.68 5.99 1.24 3.96 1.26 5.86 2.11 3.65 1.83 5.25 2.95V112.4c-3.26-1.25-6.82-2.18-10.68-2.78s-8.29-.9-13.29-.9-9.91.55-14.46 1.64-8.56 2.8-12.01 5.12c-3.46 2.32-6.19 5.28-8.2 8.87s-3.01 7.89-3.01 12.89c0 6.38 1.84 11.83 5.52 16.34s9.27 8.33 16.77 11.45c2.95 1.21 5.69 2.39 8.23 3.55s4.74 2.37 6.59 3.62 3.31 2.61 4.38 4.09 1.61 3.15 1.61 5.02c0 1.38-.33 2.67-1 3.85s-1.68 2.21-3.05 3.08-3.06 1.55-5.09 2.04-4.41.74-7.13.74c-4.64 0-9.24-.81-13.79-2.45-4.55-1.63-8.77-4.07-12.65-7.33Zm-35.67-53.34h27.52v-17.65H64.59v17.65h27.39v78.57h21.8z" style="fill:#3178c6;fill-rule:evenodd"/></svg>