<svg xmlns="http://www.w3.org/2000/svg" viewBox="0 0 594.67 250"><path d="M0 0h594.67v250H0z" style="fill:#ffb900"/><path d="M121.53 179.32 80.82 54.59h17.4l19.43 61.44c5.37 16.84 9.99 32.02 13.32 46.63h.37c3.52-14.43 8.7-30.16 14.25-46.45l21.1-61.62h17.21l-44.6 124.73zM213.5 54.59v52.19h60.33V54.59h16.29v124.73h-16.29v-58.48H213.5v58.48h-16.1V54.59zM318.06 56.25c9.81-1.48 21.47-2.59 34.24-2.59 23.13 0 39.6 5.37 50.52 15.54 11.1 10.18 17.58 24.61 17.58 44.78s-6.29 37.01-17.95 48.49c-11.66 11.66-30.91 17.95-55.15 17.95-11.47 0-21.1-.56-29.24-1.48zm16.1 110.3c4.07.74 9.99.93 16.29.93 34.42 0 53.11-19.25 53.11-52.93.18-29.42-16.47-48.12-50.52-48.12-8.33 0-14.62.74-18.88 1.67zM441.31 54.59h16.1v111.22h53.3v13.51h-69.4z"/></svg>