<svg xmlns="http://www.w3.org/2000/svg" viewBox="0 0 698.08 250"><path d="M0 0h698.08v250H0z" style="fill:#fff"/><path d="m132.36 56.6-25.65 31.35L93.88 68z" style="fill:#f7a41d"/><path d="m132.36 56.6-18.53 15.67-7.12 15.68h-8.55v72.68h12.82l-15.67 7.12-11.41 24.23H66.8V56.6z" shape-rendering="crispEdges" style="fill:#f7a41d"/><path d="M110.98 160.63 83.9 191.98 72.5 176.3zM146.61 56.6l8.55 19.95-35.63 11.4z" style="fill:#f7a41d"/><path d="M146.61 56.6h78.38v31.35H119.53l27.08-17.1z" shape-rendering="crispEdges" style="fill:#f7a41d"/><path d="m232.11 160.63-27.07 31.35-9.98-18.53z" style="fill:#f7a41d"/><path d="m232.11 160.63-22.8 12.82-4.27 18.53h-78.38v-31.35z" shape-rendering="crispEdges" style="fill:#f7a41d"/><path d="M280.57 25.24 140.91 191.98l-69.83 32.78L210.74 56.6zM267.74 56.6l-1.42 25.65-25.66 7.12z" style="fill:#f7a41d"/><path d="M284.84 56.6v135.38h-66.98l19.95-17.1 7.13-14.25h8.55V89.37h-12.83l14.25-12.82 12.83-19.95z" shape-rendering="crispEdges" style="fill:#f7a41d"/><path d="m244.94 160.63 7.12 21.37-34.2 9.98z" style="fill:#f7a41d"/><path d="M437.33 56.6v21.37l-44.18 4.28h-74.11V56.6z" shape-rendering="crispEdges" style="fill:#121212"/><path d="m437.33 77.97-75.53 88.36v5.7h-44.18l75.53-89.78v-4.28z" style="fill:#121212"/><path d="M438.75 166.33v25.65H317.62v-19.95l42.75-5.7zM454.43 56.6h31.35v135.38h-31.35zM628.29 120.72v55.58h-25.65v-35.62L579.83 125l-19.95-4.28z" shape-rendering="crispEdges" style="fill:#121212"/><path d="m579.83 122.15 22.81 18.53-42.76-19.96z" style="fill:#121212"/><path d="M628.29 176.3c-14.54 10.4-34.2 17.1-53.73 17.1-41.33 0-72.82-29.64-72.82-68.83s32.06-68.55 74.1-68.55c20.38 0 41.61 7.84 55.44 19.95l-18.53 21.38c-10.12-8.98-23.94-14.25-36.91-14.25-24.23 0-43.04 18.38-43.04 42.04s18.95 42.18 43.18 42.18c8.12 0 18.24-3.28 27.08-7.84l25.22 16.82Z" style="fill:#121212"/></svg>