<?xml version="1.0" encoding="UTF-8"?>
<svg id="Layer_2" data-name="Layer 2" xmlns="http://www.w3.org/2000/svg" viewBox="0 0 815.78 815.78">
  <defs>
    <style>
      .cls-1 {
        fill: #fff;
      }
    </style>
  </defs>
  <g id="Base_Logo_Dark" data-name="Base Logo Dark">
    <g>
      <circle cx="407.89" cy="407.89" r="407.89"/>
      <g>
        <polygon class="cls-1" points="412.59 409.17 432.59 374.53 432.59 744 412.59 709.36 412.59 409.17"/>
        <polygon class="cls-1" points="402.59 469.72 382.59 435.08 382.59 804.55 402.59 769.91 402.59 469.72"/>
        <polygon class="cls-1" points="191.76 144.55 191.76 104.55 376.5 424.53 341.86 404.53 191.76 144.55"/>
        <polygon class="cls-1" points="402.59 409.72 402.59 449.72 217.85 129.75 252.5 149.75 402.59 409.72"/>
        <polygon class="cls-1" points="627.33 137.23 627.33 97.23 442.59 417.2 477.23 397.2 627.33 137.23"/>
        <polygon class="cls-1" points="442.59 357.2 442.59 397.2 627.33 77.23 592.69 97.23 442.59 357.2"/>
      </g>
    </g>
  </g>
</svg>
