<?xml version="1.0" encoding="UTF-8"?>
<svg id="Layer_2" data-name="Layer 2" xmlns="http://www.w3.org/2000/svg" viewBox="0 0 435.57 727.32">
  <g id="Base_Logo_Light" data-name="Base Logo Light">
    <g>
      <polygon points="220.83 331.94 240.83 297.29 240.83 666.77 220.83 632.13 220.83 331.94"/>
      <polygon points="210.83 392.49 190.83 357.85 190.83 727.32 210.83 692.68 210.83 392.49"/>
      <polygon points="0 67.32 0 27.32 184.74 347.29 150.1 327.29 0 67.32"/>
      <polygon points="210.83 332.49 210.83 372.49 26.09 52.51 60.73 72.51 210.83 332.49"/>
      <polygon points="435.57 60 435.57 20 250.83 339.97 285.47 319.97 435.57 60"/>
      <polygon points="250.83 279.97 250.83 319.97 435.57 0 400.93 20 250.83 279.97"/>
    </g>
  </g>
</svg>